<svg xmlns="http://www.w3.org/2000/svg" version="1.1" xmlns:xlink="http://www.w3.org/1999/xlink" xmlns:svgjs="http://svgjs.dev/svgjs" width="1500" height="409" viewBox="0 0 1500 409"><g transform="matrix(1,0,0,1,-0.9090909090909918,-1.7992544379598598)"><svg viewBox="0 0 396 108" data-background-color="#000000" preserveAspectRatio="xMidYMid meet" height="409" width="1500" xmlns="http://www.w3.org/2000/svg" xmlns:xlink="http://www.w3.org/1999/xlink"><g id="tight-bounds" transform="matrix(1,0,0,1,0.2400000000000091,0.4751087513439245)"><svg viewBox="0 0 395.52 107.04978249731217" height="107.04978249731217" width="395.52"><g><svg viewBox="0 0 620.3941100059002 167.9132649138986" height="107.04978249731217" width="395.52"><g></g><g transform="matrix(1,0,0,1,224.87411000590018,0.41769468884054106)"><svg viewBox="0 0 395.52 167.0778755362175" height="167.0778755362175" width="395.52"><g id="textblocktransform"><svg viewBox="0 0 395.52 167.0778755362175" height="167.0778755362175" width="395.52" id="textblock"><g><svg viewBox="0 0 395.52 104.14808368200836" height="104.14808368200836" width="395.52"><g transform="matrix(1,0,0,1,0,0)"><svg width="395.52" viewBox="2.65 -35.7 179.23999999999998 47.2" height="104.14808368200836" data-palette-color="url(#508da093-c419-403f-a9ad-2309822a46d3)"></svg></g></svg></g><g transform="matrix(1,0,0,1,0,128.73494668532217)"><svg viewBox="0 0 232.209792 38.34292885089535" height="38.34292885089535" width="232.209792"><g transform="matrix(1,0,0,1,0,0)"><svg width="232.209792" viewBox="2.61 -44.41 271.28999999999996 44.8" height="38.34292885089535" data-palette-color="url(#014c611f-e187-41e9-8e3f-fb8fe12d5c67)"></svg></g></svg></g></svg></g></svg></g><g transform="matrix(1,0,0,1,0,0.41769468884054106)"><svg viewBox="0 0 166.30820233200672 167.0778755362175" height="167.0778755362175" width="166.30820233200672"><g><svg xmlns="http://www.w3.org/2000/svg" xmlns:xlink="http://www.w3.org/1999/xlink" version="1.1" x="0" y="0" viewBox="34.57852498980713 33.28191777352226 37.90665051143946 38.082082226477745" enable-background="new 0 0 100 100" xml:space="preserve" height="167.0778755362175" width="166.30820233200672" class="icon-icon-0" data-fill-palette-color="accent" id="icon-0"></svg></g></svg></g></svg></g><defs></defs><mask id="4c3445b2-98e4-41f9-aa1e-a591236157aa"><g id="SvgjsG2814"><svg viewBox="0 0 395.52 107.04978249731217" height="107.04978249731217" width="395.52"><g><svg viewBox="0 0 620.3941100059002 167.9132649138986" height="107.04978249731217" width="395.52"><g><rect width="9.392181667265874" height="167.9132649138986" x="190.8950653353205" y="0" fill="white" opacity="1" stroke-width="0" stroke="transparent" fill-opacity="1" class="rect-yte-0" rx="1%" id="SvgjsRect2813" data-palette-color="url(#508da093-c419-403f-a9ad-2309822a46d3)"></rect></g><g transform="matrix(1,0,0,1,224.87411000590018,0.41769468884054106)"><svg viewBox="0 0 395.52 167.0778755362175" height="167.0778755362175" width="395.52"><g id="SvgjsG2812"><svg viewBox="0 0 395.52 167.0778755362175" height="167.0778755362175" width="395.52" id="SvgjsSvg2811"><g><svg viewBox="0 0 395.52 104.14808368200836" height="104.14808368200836" width="395.52"><g transform="matrix(1,0,0,1,0,0)"><svg width="395.52" viewBox="2.65 -35.7 179.23999999999998 47.2" height="104.14808368200836" data-palette-color="url(#508da093-c419-403f-a9ad-2309822a46d3)"><path d="M6.5-3.1L6.5-3.1 6.5-35 9.9-35 9.9-3.4Q9.9 2.9 8.15 6.4 6.4 9.9 2.8 11.5L2.8 11.5 2.65 11.25Q4.65 9.85 5.58 6.53 6.5 3.2 6.5-3.1ZM26.3 0L22.9 0 22.9-35 26.3-35 26.3-18.8 47.3-18.8 47.3-35 50.7-35 50.7 0 47.3 0 47.3-17.6 26.3-17.6 26.3 0ZM62.15 0L58.5 0 71.95-35 75.05-35 88.5 0 84.85 0 78.65-16.4 67.3-16.4 62.15 0ZM72.6-32.4L72.3-32.4 67.65-17.6 78.2-17.6 72.6-32.4ZM99.24 0L95.84 0 97.09-35.7 97.69-35.7 122.84-5.3 123.14-5.3 122.04-35 125.44-35 124.19 0.7 123.59 0.7 98.44-29.7 98.14-29.7 99.24 0ZM137.69-3.1L137.69-3.1 137.69-35 141.09-35 141.09-3.4Q141.09 2.9 139.34 6.4 137.59 9.9 133.99 11.5L133.99 11.5 133.84 11.25Q135.84 9.85 136.76 6.53 137.69 3.2 137.69-3.1ZM157.49 0L154.09 0 154.09-35 157.49-35 157.49-18.8 178.49-18.8 178.49-35 181.89-35 181.89 0 178.49 0 178.49-17.6 157.49-17.6 157.49 0Z" opacity="1" transform="matrix(1,0,0,1,0,0)" fill="white" class="wordmark-text-0" id="SvgjsPath2810"></path></svg></g></svg></g><g transform="matrix(1,0,0,1,0,128.73494668532217)"><svg viewBox="0 0 232.209792 38.34292885089535" height="38.34292885089535" width="232.209792"><g transform="matrix(1,0,0,1,0,0)"><svg width="232.209792" viewBox="2.61 -44.41 271.28999999999996 44.8" height="38.34292885089535" data-palette-color="url(#014c611f-e187-41e9-8e3f-fb8fe12d5c67)"><path d="M11.94 0.39L11.94 0.39Q11.06 0.39 9.85 0.12 8.64-0.15 7.39-0.93 6.13-1.71 5.04-3.25 3.96-4.79 3.28-7.3 2.61-9.81 2.61-13.57L2.61-13.57 2.61-28.34Q2.61-32.1 3.32-34.61 4.03-37.11 5.19-38.61 6.35-40.11 7.76-40.86 9.18-41.6 10.6-41.83 12.01-42.07 13.21-42.07L13.21-42.07Q16.6-42.07 18.59-40.87 20.58-39.67 21.45-37.66 22.31-35.64 22.31-33.23L22.31-33.23Q22.31-31.88 22.12-30.75 21.92-29.61 21.66-28.25L21.66-28.25 16.77-28.25 16.77-30.25Q16.77-37.11 13.04-37.11L13.04-37.11Q11.04-37.11 10.13-35.61 9.23-34.11 9.23-30.1L9.23-30.1 9.23-11.3Q9.23-7.42 10.16-5.99 11.08-4.57 13.09-4.57L13.09-4.57Q15.19-4.57 16.14-6.6 17.09-8.64 17.09-11.65L17.09-11.65 17.09-16.97 13.84-16.97 13.84-21.12 23.14-21.12 23.14 0 19.04 0 18.36-3.98Q17.48-2.25 15.77-0.93 14.06 0.39 11.94 0.39ZM28.24 0L28.24-44.41 34.42-44.41 34.42-36.5 34.1-30.74Q35.47-32.62 37.16-33.31 38.84-34.01 40.55-34.01L40.55-34.01Q43.48-34.01 45.09-31.93 46.7-29.86 46.7-25.76L46.7-25.76 46.7 0 40.52 0 40.52-25.02Q40.52-27.25 39.84-28.11 39.16-28.98 37.84-28.98L37.84-28.98Q36.91-28.98 36.02-28.34 35.13-27.71 34.42-26.64L34.42-26.64 34.42 0 28.24 0ZM58.91-18.68L58.91-18.68Q59.83-19.14 60.91-19.63 61.98-20.12 62.89-20.43L62.89-20.43 62.89-24.51Q62.89-25.78 62.78-26.88 62.67-27.98 62.12-28.67 61.57-29.37 60.25-29.37L60.25-29.37Q58.93-29.37 57.88-28.3 56.83-27.22 56.83-24.32L56.83-24.32 56.83-22.97 52.12-22.97Q51.68-24.88 51.68-26.29L51.68-26.29Q51.68-30.05 54.15-32.02 56.61-33.98 60.44-33.98L60.44-33.98Q63.79-33.98 65.67-33.04 67.55-32.1 68.31-30.21 69.06-28.32 69.06-25.42L69.06-25.42 69.06 0 64.3 0 63.86-2.88Q62.89-1.46 61.27-0.54 59.66 0.39 57.54 0.39L57.54 0.39Q55.34 0.39 53.93-0.73 52.51-1.86 51.81-3.7 51.12-5.54 51.12-7.71L51.12-7.71Q51.12-11.87 53.1-14.32 55.07-16.77 58.91-18.68ZM60.27-4.32L60.27-4.32Q61.05-4.32 61.71-4.72 62.37-5.13 62.89-5.71L62.89-5.71 62.89-16.31Q62.42-16.11 61.88-15.84 61.35-15.58 60.64-15.14L60.64-15.14Q59.35-14.33 58.22-12.73 57.1-11.13 57.1-8.67L57.1-8.67Q57.1-6.74 57.86-5.53 58.61-4.32 60.27-4.32ZM75.29 0L75.29-33.62 79.8-33.62 80.34-30.2Q81.34-32.1 82.68-33.06 84.03-34.01 85.42-34.01L85.42-34.01Q90.62-34.01 90.62-27.47L90.62-27.47Q90.62-26.64 90.37-25.28 90.13-23.93 89.79-22.9L89.79-22.9 85.49-22.9 85.49-25.51Q85.49-27.54 84.88-28.26 84.27-28.98 83.37-28.98L83.37-28.98Q82.22-28.98 81.46-27.17L81.46-27.17 81.46 0 75.29 0ZM105.16 0L105.16-44.41 111.34-44.41 111.34-18.85 111.54-18.85 118.27-33.62 124.21-33.62 117-18.53 124.91 0 118.66 0 111.54-16.67 111.34-16.67 111.34 0 105.16 0ZM134.26-18.68L134.26-18.68Q135.19-19.14 136.26-19.63 137.34-20.12 138.24-20.43L138.24-20.43 138.24-24.51Q138.24-25.78 138.13-26.88 138.02-27.98 137.47-28.67 136.92-29.37 135.61-29.37L135.61-29.37Q134.29-29.37 133.24-28.3 132.19-27.22 132.19-24.32L132.19-24.32 132.19-22.97 127.48-22.97Q127.04-24.88 127.04-26.29L127.04-26.29Q127.04-30.05 129.5-32.02 131.97-33.98 135.8-33.98L135.8-33.98Q139.15-33.98 141.03-33.04 142.9-32.1 143.66-30.21 144.42-28.32 144.42-25.42L144.42-25.42 144.42 0 139.66 0 139.22-2.88Q138.24-1.46 136.63-0.54 135.02 0.39 132.9 0.39L132.9 0.39Q130.7 0.39 129.28-0.73 127.87-1.86 127.17-3.7 126.47-5.54 126.47-7.71L126.47-7.71Q126.47-11.87 128.45-14.32 130.43-16.77 134.26-18.68ZM135.63-4.32L135.63-4.32Q136.41-4.32 137.07-4.72 137.73-5.13 138.24-5.71L138.24-5.71 138.24-16.31Q137.78-16.11 137.24-15.84 136.7-15.58 136-15.14L136-15.14Q134.7-14.33 133.58-12.73 132.46-11.13 132.46-8.67L132.46-8.67Q132.46-6.74 133.21-5.53 133.97-4.32 135.63-4.32ZM161.72 0L161.72-41.7 168.05-41.7 168.05-23.49 168.24-23.49 175.47-41.7 181.77-41.7 173.73-22.14 182.67 0 175.91 0 168.24-19.85 168.05-19.85 168.05 0 161.72 0ZM186.09 0L186.09-44.41 192.26-44.41 192.26-36.5 191.95-30.74Q193.31-32.62 195-33.31 196.68-34.01 198.39-34.01L198.39-34.01Q201.32-34.01 202.93-31.93 204.54-29.86 204.54-25.76L204.54-25.76 204.54 0 198.37 0 198.37-25.02Q198.37-27.25 197.68-28.11 197-28.98 195.68-28.98L195.68-28.98Q194.75-28.98 193.86-28.34 192.97-27.71 192.26-26.64L192.26-26.64 192.26 0 186.09 0ZM216.75-18.68L216.75-18.68Q217.68-19.14 218.75-19.63 219.82-20.12 220.73-20.43L220.73-20.43 220.73-24.51Q220.73-25.78 220.62-26.88 220.51-27.98 219.96-28.67 219.41-29.37 218.09-29.37L218.09-29.37Q216.77-29.37 215.72-28.3 214.67-27.22 214.67-24.32L214.67-24.32 214.67-22.97 209.96-22.97Q209.52-24.88 209.52-26.29L209.52-26.29Q209.52-30.05 211.99-32.02 214.45-33.98 218.29-33.98L218.29-33.98Q221.63-33.98 223.51-33.04 225.39-32.1 226.15-30.21 226.9-28.32 226.9-25.42L226.9-25.42 226.9 0 222.14 0 221.7-2.88Q220.73-1.46 219.12-0.54 217.5 0.39 215.38 0.39L215.38 0.39Q213.18 0.39 211.77-0.73 210.35-1.86 209.66-3.7 208.96-5.54 208.96-7.71L208.96-7.71Q208.96-11.87 210.94-14.32 212.91-16.77 216.75-18.68ZM218.11-4.32L218.11-4.32Q218.9-4.32 219.56-4.72 220.21-5.13 220.73-5.71L220.73-5.71 220.73-16.31Q220.26-16.11 219.73-15.84 219.19-15.58 218.48-15.14L218.48-15.14Q217.19-14.33 216.06-12.73 214.94-11.13 214.94-8.67L214.94-8.67Q214.94-6.74 215.7-5.53 216.45-4.32 218.11-4.32ZM233.13 0L233.13-33.62 237.84-33.62 238.45-30.03 238.45-30Q239.89-32.32 241.72-33.17 243.55-34.01 245.41-34.01L245.41-34.01Q248.34-34.01 249.95-31.93 251.56-29.86 251.56-25.76L251.56-25.76 251.56 0 245.38 0 245.38-25.02Q245.38-27.25 244.7-28.11 244.02-28.98 242.7-28.98L242.7-28.98Q241.77-28.98 240.89-28.37 240.01-27.76 239.3-26.68L239.3-26.68 239.3 0 233.13 0ZM263.74-18.68L263.74-18.68Q264.67-19.14 265.74-19.63 266.82-20.12 267.72-20.43L267.72-20.43 267.72-24.51Q267.72-25.78 267.61-26.88 267.5-27.98 266.95-28.67 266.4-29.37 265.08-29.37L265.08-29.37Q263.76-29.37 262.71-28.3 261.66-27.22 261.66-24.32L261.66-24.32 261.66-22.97 256.95-22.97Q256.51-24.88 256.51-26.29L256.51-26.29Q256.51-30.05 258.98-32.02 261.44-33.98 265.28-33.98L265.28-33.98Q268.62-33.98 270.5-33.04 272.38-32.1 273.14-30.21 273.9-28.32 273.9-25.42L273.9-25.42 273.9 0 269.14 0 268.7-2.88Q267.72-1.46 266.11-0.54 264.5 0.39 262.37 0.39L262.37 0.39Q260.18 0.39 258.76-0.73 257.34-1.86 256.65-3.7 255.95-5.54 255.95-7.71L255.95-7.71Q255.95-11.87 257.93-14.32 259.91-16.77 263.74-18.68ZM265.11-4.32L265.11-4.32Q265.89-4.32 266.55-4.72 267.21-5.13 267.72-5.71L267.72-5.71 267.72-16.31Q267.26-16.11 266.72-15.84 266.18-15.58 265.47-15.14L265.47-15.14Q264.18-14.33 263.06-12.73 261.93-11.13 261.93-8.67L261.93-8.67Q261.93-6.74 262.69-5.53 263.45-4.32 265.11-4.32Z" opacity="1" transform="matrix(1,0,0,1,0,0)" fill="black" class="slogan-text-1" id="SvgjsPath2809"></path></svg></g></svg></g></svg></g></svg></g><g transform="matrix(1,0,0,1,0,0.41769468884054106)"><svg viewBox="0 0 166.30820233200672 167.0778755362175" height="167.0778755362175" width="166.30820233200672"><g><svg xmlns="http://www.w3.org/2000/svg" xmlns:xlink="http://www.w3.org/1999/xlink" version="1.1" x="0" y="0" viewBox="34.57852498980713 33.28191777352226 37.90665051143946 38.082082226477745" enable-background="new 0 0 100 100" xml:space="preserve" height="167.0778755362175" width="166.30820233200672" class="icon-icon-0" data-fill-palette-color="accent" id="SvgjsSvg2808"><g fill="black"><path d="M44.614 46.07A15 15 0 0 1 45.886 44.616L45.179 43.909 44.472 43.202C40.204 47.47 38.562 53.745 40.186 59.579L42.113 59.043A14.82 14.82 0 0 1 44.614 46.07" fill="black"></path><path d="M72.172 40.629L72.434 40.367 71.727 39.66A21.63 21.63 0 0 0 56.33 33.282C51.56 33.282 47.038 34.827 43.292 37.643A4.18 4.18 0 0 0 39.107 33.748 4.2 4.2 0 0 0 36.125 34.983 4.2 4.2 0 0 0 34.889 37.965 4.187 4.187 0 0 0 38.819 42.155C32.539 50.671 33.227 62.749 40.932 70.454L41.639 71.161 41.766 71.034C42.214 71.245 42.731 71.364 43.331 71.364 47.147 71.364 54.291 66.783 61.108 59.967 65.077 55.998 68.383 51.824 70.418 48.213 72.333 44.814 72.917 42.23 72.172 40.629M37.538 39.535A2.2 2.2 0 0 1 36.888 37.967C36.888 37.375 37.119 36.818 37.538 36.399 37.957 35.981 38.514 35.75 39.106 35.75S40.255 35.981 40.674 36.399A2.22 2.22 0 0 1 40.674 39.536C39.836 40.373 38.375 40.373 37.538 39.535M40.336 66.682C34.713 58.953 35.378 48.042 42.345 41.075A19.65 19.65 0 0 1 56.329 35.283C60.608 35.283 64.677 36.638 68.054 39.137 64.053 39.94 57.661 44.252 51.526 50.387 47.557 54.356 44.251 58.53 42.216 62.141 41.238 63.877 40.624 65.39 40.336 66.682M68.674 47.233C66.727 50.69 63.537 54.71 59.693 58.554 52.595 65.652 46.089 69.366 43.33 69.366 42.892 69.366 42.579 69.275 42.399 69.095 41.824 68.52 42.084 66.45 43.959 63.121 45.906 59.664 49.096 55.644 52.94 51.8 60.038 44.702 66.544 40.988 69.303 40.988 69.741 40.988 70.054 41.079 70.234 41.259 70.809 41.834 70.55 43.904 68.674 47.233" fill="black"></path></g></svg></g></svg></g></svg></g><defs><mask></mask></defs></svg><rect width="395.52" height="107.04978249731217" fill="black" stroke="none" visibility="hidden"></rect></g></mask><linearGradient x1="0" x2="1" y1="0.5" y2="0.5" id="508da093-c419-403f-a9ad-2309822a46d3"><stop stop-color="#fff72e" offset="0"></stop><stop stop-color="#deae29" offset="1"></stop></linearGradient><rect width="395.52" height="107.04978249731217" fill="url(#508da093-c419-403f-a9ad-2309822a46d3)" mask="url(#4c3445b2-98e4-41f9-aa1e-a591236157aa)" data-fill-palette-color="primary"></rect><mask id="5dbaa317-a27f-492d-8090-5e398460f55b"><g id="SvgjsG2826"><svg viewBox="0 0 395.52 107.04978249731217" height="107.04978249731217" width="395.52"><g><svg viewBox="0 0 620.3941100059002 167.9132649138986" height="107.04978249731217" width="395.52"><g></g><g transform="matrix(1,0,0,1,224.87411000590018,0.41769468884054106)"><svg viewBox="0 0 395.52 167.0778755362175" height="167.0778755362175" width="395.52"><g id="SvgjsG2825"><svg viewBox="0 0 395.52 167.0778755362175" height="167.0778755362175" width="395.52" id="SvgjsSvg2824"><g><svg viewBox="0 0 395.52 104.14808368200836" height="104.14808368200836" width="395.52"><g transform="matrix(1,0,0,1,0,0)"><svg width="395.52" viewBox="2.65 -35.7 179.23999999999998 47.2" height="104.14808368200836" data-palette-color="url(#508da093-c419-403f-a9ad-2309822a46d3)"></svg></g></svg></g><g transform="matrix(1,0,0,1,0,128.73494668532217)"><svg viewBox="0 0 232.209792 38.34292885089535" height="38.34292885089535" width="232.209792"><g transform="matrix(1,0,0,1,0,0)"><svg width="232.209792" viewBox="2.61 -44.41 271.28999999999996 44.8" height="38.34292885089535" data-palette-color="url(#014c611f-e187-41e9-8e3f-fb8fe12d5c67)"><path d="M11.94 0.39L11.94 0.39Q11.06 0.39 9.85 0.12 8.64-0.15 7.39-0.93 6.13-1.71 5.04-3.25 3.96-4.79 3.28-7.3 2.61-9.81 2.61-13.57L2.61-13.57 2.61-28.34Q2.61-32.1 3.32-34.61 4.03-37.11 5.19-38.61 6.35-40.11 7.76-40.86 9.18-41.6 10.6-41.83 12.01-42.07 13.21-42.07L13.21-42.07Q16.6-42.07 18.59-40.87 20.58-39.67 21.45-37.66 22.31-35.64 22.31-33.23L22.31-33.23Q22.31-31.88 22.12-30.75 21.92-29.61 21.66-28.25L21.66-28.25 16.77-28.25 16.77-30.25Q16.77-37.11 13.04-37.11L13.04-37.11Q11.04-37.11 10.13-35.61 9.23-34.11 9.23-30.1L9.23-30.1 9.23-11.3Q9.23-7.42 10.16-5.99 11.08-4.57 13.09-4.57L13.09-4.57Q15.19-4.57 16.14-6.6 17.09-8.64 17.09-11.65L17.09-11.65 17.09-16.97 13.84-16.97 13.84-21.12 23.14-21.12 23.14 0 19.04 0 18.36-3.98Q17.48-2.25 15.77-0.93 14.06 0.39 11.94 0.39ZM28.24 0L28.24-44.41 34.42-44.41 34.42-36.5 34.1-30.74Q35.47-32.62 37.16-33.31 38.84-34.01 40.55-34.01L40.55-34.01Q43.48-34.01 45.09-31.93 46.7-29.86 46.7-25.76L46.7-25.76 46.7 0 40.52 0 40.52-25.02Q40.52-27.25 39.84-28.11 39.16-28.98 37.84-28.98L37.84-28.98Q36.91-28.98 36.02-28.34 35.13-27.71 34.42-26.64L34.42-26.64 34.42 0 28.24 0ZM58.91-18.68L58.91-18.68Q59.83-19.14 60.91-19.63 61.98-20.12 62.89-20.43L62.89-20.43 62.89-24.51Q62.89-25.78 62.78-26.88 62.67-27.98 62.12-28.67 61.57-29.37 60.25-29.37L60.25-29.37Q58.93-29.37 57.88-28.3 56.83-27.22 56.83-24.32L56.83-24.32 56.83-22.97 52.12-22.97Q51.68-24.88 51.68-26.29L51.68-26.29Q51.68-30.05 54.15-32.02 56.61-33.98 60.44-33.98L60.44-33.98Q63.79-33.98 65.67-33.04 67.55-32.1 68.31-30.21 69.06-28.32 69.06-25.42L69.06-25.42 69.06 0 64.3 0 63.86-2.88Q62.89-1.46 61.27-0.54 59.66 0.39 57.54 0.39L57.54 0.39Q55.34 0.39 53.93-0.73 52.51-1.86 51.81-3.7 51.12-5.54 51.12-7.71L51.12-7.71Q51.12-11.87 53.1-14.32 55.07-16.77 58.91-18.68ZM60.27-4.32L60.27-4.32Q61.05-4.32 61.71-4.72 62.37-5.13 62.89-5.71L62.89-5.71 62.89-16.31Q62.42-16.11 61.88-15.84 61.35-15.58 60.64-15.14L60.64-15.14Q59.35-14.33 58.22-12.73 57.1-11.13 57.1-8.67L57.1-8.67Q57.1-6.74 57.86-5.53 58.61-4.32 60.27-4.32ZM75.29 0L75.29-33.62 79.8-33.62 80.34-30.2Q81.34-32.1 82.68-33.06 84.03-34.01 85.42-34.01L85.42-34.01Q90.62-34.01 90.62-27.47L90.62-27.47Q90.62-26.64 90.37-25.28 90.13-23.93 89.79-22.9L89.79-22.9 85.49-22.9 85.49-25.51Q85.49-27.54 84.88-28.26 84.27-28.98 83.37-28.98L83.37-28.98Q82.22-28.98 81.46-27.17L81.46-27.17 81.46 0 75.29 0ZM105.16 0L105.16-44.41 111.34-44.41 111.34-18.85 111.54-18.85 118.27-33.62 124.21-33.62 117-18.53 124.91 0 118.66 0 111.54-16.67 111.34-16.67 111.34 0 105.16 0ZM134.26-18.68L134.26-18.68Q135.19-19.14 136.26-19.63 137.34-20.12 138.24-20.43L138.24-20.43 138.24-24.51Q138.24-25.78 138.13-26.88 138.02-27.98 137.47-28.67 136.92-29.37 135.61-29.37L135.61-29.37Q134.29-29.37 133.24-28.3 132.19-27.22 132.19-24.32L132.19-24.32 132.19-22.97 127.48-22.97Q127.04-24.88 127.04-26.29L127.04-26.29Q127.04-30.05 129.5-32.02 131.97-33.98 135.8-33.98L135.8-33.98Q139.15-33.98 141.03-33.04 142.9-32.1 143.66-30.21 144.42-28.32 144.42-25.42L144.42-25.42 144.42 0 139.66 0 139.22-2.88Q138.24-1.46 136.63-0.54 135.02 0.39 132.9 0.39L132.9 0.39Q130.7 0.39 129.28-0.73 127.87-1.86 127.17-3.7 126.47-5.54 126.47-7.71L126.47-7.71Q126.47-11.87 128.45-14.32 130.43-16.77 134.26-18.68ZM135.63-4.32L135.63-4.32Q136.41-4.32 137.07-4.72 137.73-5.13 138.24-5.71L138.24-5.71 138.24-16.31Q137.78-16.11 137.24-15.84 136.7-15.58 136-15.14L136-15.14Q134.7-14.33 133.58-12.73 132.46-11.13 132.46-8.67L132.46-8.67Q132.46-6.74 133.21-5.53 133.97-4.32 135.63-4.32ZM161.72 0L161.72-41.7 168.05-41.7 168.05-23.49 168.24-23.49 175.47-41.7 181.77-41.7 173.73-22.14 182.67 0 175.91 0 168.24-19.85 168.05-19.85 168.05 0 161.72 0ZM186.09 0L186.09-44.41 192.26-44.41 192.26-36.5 191.95-30.74Q193.31-32.62 195-33.31 196.68-34.01 198.39-34.01L198.39-34.01Q201.32-34.01 202.93-31.93 204.54-29.86 204.54-25.76L204.54-25.76 204.54 0 198.37 0 198.37-25.02Q198.37-27.25 197.68-28.11 197-28.98 195.68-28.98L195.68-28.98Q194.75-28.98 193.86-28.34 192.97-27.71 192.26-26.64L192.26-26.64 192.26 0 186.09 0ZM216.75-18.68L216.75-18.68Q217.68-19.14 218.75-19.63 219.82-20.12 220.73-20.43L220.73-20.43 220.73-24.51Q220.73-25.78 220.62-26.88 220.51-27.98 219.96-28.67 219.41-29.37 218.09-29.37L218.09-29.37Q216.77-29.37 215.72-28.3 214.67-27.22 214.67-24.32L214.67-24.32 214.67-22.97 209.96-22.97Q209.52-24.88 209.52-26.29L209.52-26.29Q209.52-30.05 211.99-32.02 214.45-33.98 218.29-33.98L218.29-33.98Q221.63-33.98 223.51-33.04 225.39-32.1 226.15-30.21 226.9-28.32 226.9-25.42L226.9-25.42 226.9 0 222.14 0 221.7-2.88Q220.73-1.46 219.12-0.54 217.5 0.39 215.38 0.39L215.38 0.39Q213.18 0.39 211.77-0.73 210.35-1.86 209.66-3.7 208.96-5.54 208.96-7.71L208.96-7.71Q208.96-11.87 210.94-14.32 212.91-16.77 216.75-18.68ZM218.11-4.32L218.11-4.32Q218.9-4.32 219.56-4.72 220.21-5.13 220.73-5.71L220.73-5.71 220.73-16.31Q220.26-16.11 219.73-15.84 219.19-15.58 218.48-15.14L218.48-15.14Q217.19-14.33 216.06-12.73 214.94-11.13 214.94-8.67L214.94-8.67Q214.94-6.74 215.7-5.53 216.45-4.32 218.11-4.32ZM233.13 0L233.13-33.62 237.84-33.62 238.45-30.03 238.45-30Q239.89-32.32 241.72-33.17 243.55-34.01 245.41-34.01L245.41-34.01Q248.34-34.01 249.95-31.93 251.56-29.86 251.56-25.76L251.56-25.76 251.56 0 245.38 0 245.38-25.02Q245.38-27.25 244.7-28.11 244.02-28.98 242.7-28.98L242.7-28.98Q241.77-28.98 240.89-28.37 240.01-27.76 239.3-26.68L239.3-26.68 239.3 0 233.13 0ZM263.74-18.68L263.74-18.68Q264.67-19.14 265.74-19.63 266.82-20.12 267.72-20.43L267.72-20.43 267.72-24.51Q267.72-25.78 267.61-26.88 267.5-27.98 266.95-28.67 266.4-29.37 265.08-29.37L265.08-29.37Q263.76-29.37 262.71-28.3 261.66-27.22 261.66-24.32L261.66-24.32 261.66-22.97 256.95-22.97Q256.51-24.88 256.51-26.29L256.51-26.29Q256.51-30.05 258.98-32.02 261.44-33.98 265.28-33.98L265.28-33.98Q268.62-33.98 270.5-33.04 272.38-32.1 273.14-30.21 273.9-28.32 273.9-25.42L273.9-25.42 273.9 0 269.14 0 268.7-2.88Q267.72-1.46 266.11-0.54 264.5 0.39 262.37 0.39L262.37 0.39Q260.18 0.39 258.76-0.73 257.34-1.86 256.65-3.7 255.95-5.54 255.95-7.71L255.95-7.71Q255.95-11.87 257.93-14.32 259.91-16.77 263.74-18.68ZM265.11-4.32L265.11-4.32Q265.89-4.32 266.55-4.72 267.21-5.13 267.72-5.71L267.72-5.71 267.72-16.31Q267.26-16.11 266.72-15.84 266.18-15.58 265.47-15.14L265.47-15.14Q264.18-14.33 263.06-12.73 261.93-11.13 261.93-8.67L261.93-8.67Q261.93-6.74 262.69-5.53 263.45-4.32 265.11-4.32Z" opacity="1" transform="matrix(1,0,0,1,0,0)" fill="white" class="slogan-text-1" id="SvgjsPath2823"></path></svg></g></svg></g></svg></g></svg></g><g transform="matrix(1,0,0,1,0,0.41769468884054106)"><svg viewBox="0 0 166.30820233200672 167.0778755362175" height="167.0778755362175" width="166.30820233200672"><g><svg xmlns="http://www.w3.org/2000/svg" xmlns:xlink="http://www.w3.org/1999/xlink" version="1.1" x="0" y="0" viewBox="34.57852498980713 33.28191777352226 37.90665051143946 38.082082226477745" enable-background="new 0 0 100 100" xml:space="preserve" height="167.0778755362175" width="166.30820233200672" class="icon-icon-0" data-fill-palette-color="accent" id="SvgjsSvg2822"><g fill="black"><path d="M44.614 46.07A15 15 0 0 1 45.886 44.616L45.179 43.909 44.472 43.202C40.204 47.47 38.562 53.745 40.186 59.579L42.113 59.043A14.82 14.82 0 0 1 44.614 46.07" fill="black"></path><path d="M72.172 40.629L72.434 40.367 71.727 39.66A21.63 21.63 0 0 0 56.33 33.282C51.56 33.282 47.038 34.827 43.292 37.643A4.18 4.18 0 0 0 39.107 33.748 4.2 4.2 0 0 0 36.125 34.983 4.2 4.2 0 0 0 34.889 37.965 4.187 4.187 0 0 0 38.819 42.155C32.539 50.671 33.227 62.749 40.932 70.454L41.639 71.161 41.766 71.034C42.214 71.245 42.731 71.364 43.331 71.364 47.147 71.364 54.291 66.783 61.108 59.967 65.077 55.998 68.383 51.824 70.418 48.213 72.333 44.814 72.917 42.23 72.172 40.629M37.538 39.535A2.2 2.2 0 0 1 36.888 37.967C36.888 37.375 37.119 36.818 37.538 36.399 37.957 35.981 38.514 35.75 39.106 35.75S40.255 35.981 40.674 36.399A2.22 2.22 0 0 1 40.674 39.536C39.836 40.373 38.375 40.373 37.538 39.535M40.336 66.682C34.713 58.953 35.378 48.042 42.345 41.075A19.65 19.65 0 0 1 56.329 35.283C60.608 35.283 64.677 36.638 68.054 39.137 64.053 39.94 57.661 44.252 51.526 50.387 47.557 54.356 44.251 58.53 42.216 62.141 41.238 63.877 40.624 65.39 40.336 66.682M68.674 47.233C66.727 50.69 63.537 54.71 59.693 58.554 52.595 65.652 46.089 69.366 43.33 69.366 42.892 69.366 42.579 69.275 42.399 69.095 41.824 68.52 42.084 66.45 43.959 63.121 45.906 59.664 49.096 55.644 52.94 51.8 60.038 44.702 66.544 40.988 69.303 40.988 69.741 40.988 70.054 41.079 70.234 41.259 70.809 41.834 70.55 43.904 68.674 47.233" fill="black"></path></g></svg></g></svg></g></svg></g><defs><mask></mask></defs><mask><g id="SvgjsG2821"><svg viewBox="0 0 395.52 107.04978249731217" height="107.04978249731217" width="395.52"><g><svg viewBox="0 0 620.3941100059002 167.9132649138986" height="107.04978249731217" width="395.52"><g><rect width="9.392181667265874" height="167.9132649138986" x="190.8950653353205" y="0" fill="black" opacity="1" stroke-width="0" stroke="transparent" fill-opacity="1" class="rect-yte-0" rx="1%" id="SvgjsRect2820" data-palette-color="url(#508da093-c419-403f-a9ad-2309822a46d3)"></rect></g><g transform="matrix(1,0,0,1,224.87411000590018,0.41769468884054106)"><svg viewBox="0 0 395.52 167.0778755362175" height="167.0778755362175" width="395.52"><g id="SvgjsG2819"><svg viewBox="0 0 395.52 167.0778755362175" height="167.0778755362175" width="395.52" id="SvgjsSvg2818"><g><svg viewBox="0 0 395.52 104.14808368200836" height="104.14808368200836" width="395.52"><g transform="matrix(1,0,0,1,0,0)"><svg width="395.52" viewBox="2.65 -35.7 179.23999999999998 47.2" height="104.14808368200836" data-palette-color="url(#508da093-c419-403f-a9ad-2309822a46d3)"><path d="M6.5-3.1L6.5-3.1 6.5-35 9.9-35 9.9-3.4Q9.9 2.9 8.15 6.4 6.4 9.9 2.8 11.5L2.8 11.5 2.65 11.25Q4.65 9.85 5.58 6.53 6.5 3.2 6.5-3.1ZM26.3 0L22.9 0 22.9-35 26.3-35 26.3-18.8 47.3-18.8 47.3-35 50.7-35 50.7 0 47.3 0 47.3-17.6 26.3-17.6 26.3 0ZM62.15 0L58.5 0 71.95-35 75.05-35 88.5 0 84.85 0 78.65-16.4 67.3-16.4 62.15 0ZM72.6-32.4L72.3-32.4 67.65-17.6 78.2-17.6 72.6-32.4ZM99.24 0L95.84 0 97.09-35.7 97.69-35.7 122.84-5.3 123.14-5.3 122.04-35 125.44-35 124.19 0.7 123.59 0.7 98.44-29.7 98.14-29.7 99.24 0ZM137.69-3.1L137.69-3.1 137.69-35 141.09-35 141.09-3.4Q141.09 2.9 139.34 6.4 137.59 9.9 133.99 11.5L133.99 11.5 133.84 11.25Q135.84 9.85 136.76 6.53 137.69 3.2 137.69-3.1ZM157.49 0L154.09 0 154.09-35 157.49-35 157.49-18.8 178.49-18.8 178.49-35 181.89-35 181.89 0 178.49 0 178.49-17.6 157.49-17.6 157.49 0Z" opacity="1" transform="matrix(1,0,0,1,0,0)" fill="black" class="wordmark-text-0" id="SvgjsPath2817"></path></svg></g></svg></g><g transform="matrix(1,0,0,1,0,128.73494668532217)"><svg viewBox="0 0 232.209792 38.34292885089535" height="38.34292885089535" width="232.209792"><g transform="matrix(1,0,0,1,0,0)"><svg width="232.209792" viewBox="2.61 -44.41 271.28999999999996 44.8" height="38.34292885089535" data-palette-color="url(#014c611f-e187-41e9-8e3f-fb8fe12d5c67)"><path d="M11.94 0.39L11.94 0.39Q11.06 0.39 9.85 0.12 8.64-0.15 7.39-0.93 6.13-1.71 5.04-3.25 3.96-4.79 3.28-7.3 2.61-9.81 2.61-13.57L2.61-13.57 2.61-28.34Q2.61-32.1 3.32-34.61 4.03-37.11 5.19-38.61 6.35-40.11 7.76-40.86 9.18-41.6 10.6-41.83 12.01-42.07 13.21-42.07L13.21-42.07Q16.6-42.07 18.59-40.87 20.58-39.67 21.45-37.66 22.31-35.64 22.31-33.23L22.31-33.23Q22.31-31.88 22.12-30.75 21.92-29.61 21.66-28.25L21.66-28.25 16.77-28.25 16.77-30.25Q16.77-37.11 13.04-37.11L13.04-37.11Q11.04-37.11 10.13-35.61 9.23-34.11 9.23-30.1L9.23-30.1 9.23-11.3Q9.23-7.42 10.16-5.99 11.08-4.57 13.09-4.57L13.09-4.57Q15.19-4.57 16.14-6.6 17.09-8.64 17.09-11.65L17.09-11.65 17.09-16.97 13.84-16.97 13.84-21.12 23.14-21.12 23.14 0 19.04 0 18.36-3.98Q17.48-2.25 15.77-0.93 14.06 0.39 11.94 0.39ZM28.24 0L28.24-44.41 34.42-44.41 34.42-36.5 34.1-30.74Q35.47-32.62 37.16-33.31 38.84-34.01 40.55-34.01L40.55-34.01Q43.48-34.01 45.09-31.93 46.7-29.86 46.7-25.76L46.7-25.76 46.7 0 40.52 0 40.52-25.02Q40.52-27.25 39.84-28.11 39.16-28.98 37.84-28.98L37.84-28.98Q36.91-28.98 36.02-28.34 35.13-27.71 34.42-26.64L34.42-26.64 34.42 0 28.24 0ZM58.91-18.68L58.91-18.68Q59.83-19.14 60.91-19.63 61.98-20.12 62.89-20.43L62.89-20.43 62.89-24.51Q62.89-25.78 62.78-26.88 62.67-27.98 62.12-28.67 61.57-29.37 60.25-29.37L60.25-29.37Q58.93-29.37 57.88-28.3 56.83-27.22 56.83-24.32L56.83-24.32 56.83-22.97 52.12-22.97Q51.68-24.88 51.68-26.29L51.68-26.29Q51.68-30.05 54.15-32.02 56.61-33.98 60.44-33.98L60.44-33.98Q63.79-33.98 65.67-33.04 67.55-32.1 68.31-30.21 69.06-28.32 69.06-25.42L69.06-25.42 69.06 0 64.3 0 63.86-2.88Q62.89-1.46 61.27-0.54 59.66 0.39 57.54 0.39L57.54 0.39Q55.34 0.39 53.93-0.73 52.51-1.86 51.81-3.7 51.12-5.54 51.12-7.71L51.12-7.71Q51.12-11.87 53.1-14.32 55.07-16.77 58.91-18.68ZM60.27-4.32L60.27-4.32Q61.05-4.32 61.71-4.72 62.37-5.13 62.89-5.71L62.89-5.71 62.89-16.31Q62.42-16.11 61.88-15.84 61.35-15.58 60.64-15.14L60.64-15.14Q59.35-14.33 58.22-12.73 57.1-11.13 57.1-8.67L57.1-8.67Q57.1-6.74 57.86-5.53 58.61-4.32 60.27-4.32ZM75.29 0L75.29-33.62 79.8-33.62 80.34-30.2Q81.34-32.1 82.68-33.06 84.03-34.01 85.42-34.01L85.42-34.01Q90.62-34.01 90.62-27.47L90.62-27.47Q90.62-26.64 90.37-25.28 90.13-23.93 89.79-22.9L89.79-22.9 85.49-22.9 85.49-25.51Q85.49-27.54 84.88-28.26 84.27-28.98 83.37-28.98L83.37-28.98Q82.22-28.98 81.46-27.17L81.46-27.17 81.46 0 75.29 0ZM105.16 0L105.16-44.41 111.34-44.41 111.34-18.85 111.54-18.85 118.27-33.62 124.21-33.62 117-18.53 124.91 0 118.66 0 111.54-16.67 111.34-16.67 111.34 0 105.16 0ZM134.26-18.68L134.26-18.68Q135.19-19.14 136.26-19.63 137.34-20.12 138.24-20.43L138.24-20.43 138.24-24.51Q138.24-25.78 138.13-26.88 138.02-27.98 137.47-28.67 136.92-29.37 135.61-29.37L135.61-29.37Q134.29-29.37 133.24-28.3 132.19-27.22 132.19-24.32L132.19-24.32 132.19-22.97 127.48-22.97Q127.04-24.88 127.04-26.29L127.04-26.29Q127.04-30.05 129.5-32.02 131.97-33.98 135.8-33.98L135.8-33.98Q139.15-33.98 141.03-33.04 142.9-32.1 143.66-30.21 144.42-28.32 144.42-25.42L144.42-25.42 144.42 0 139.66 0 139.22-2.88Q138.24-1.46 136.63-0.54 135.02 0.39 132.9 0.39L132.9 0.39Q130.7 0.39 129.28-0.73 127.87-1.86 127.17-3.7 126.47-5.54 126.47-7.71L126.47-7.71Q126.47-11.87 128.45-14.32 130.43-16.77 134.26-18.68ZM135.63-4.32L135.63-4.32Q136.41-4.32 137.07-4.72 137.73-5.13 138.24-5.71L138.24-5.71 138.24-16.31Q137.78-16.11 137.24-15.84 136.7-15.58 136-15.14L136-15.14Q134.7-14.33 133.58-12.73 132.46-11.13 132.46-8.67L132.46-8.67Q132.46-6.74 133.21-5.53 133.97-4.32 135.63-4.32ZM161.72 0L161.72-41.7 168.05-41.7 168.05-23.49 168.24-23.49 175.47-41.7 181.77-41.7 173.73-22.14 182.67 0 175.91 0 168.24-19.85 168.05-19.85 168.05 0 161.72 0ZM186.09 0L186.09-44.41 192.26-44.41 192.26-36.5 191.95-30.74Q193.31-32.62 195-33.31 196.68-34.01 198.39-34.01L198.39-34.01Q201.32-34.01 202.93-31.93 204.54-29.86 204.54-25.76L204.54-25.76 204.54 0 198.37 0 198.37-25.02Q198.37-27.25 197.68-28.11 197-28.98 195.68-28.98L195.68-28.98Q194.75-28.98 193.86-28.34 192.97-27.71 192.26-26.64L192.26-26.64 192.26 0 186.09 0ZM216.75-18.68L216.75-18.68Q217.68-19.14 218.75-19.63 219.82-20.12 220.73-20.43L220.73-20.43 220.73-24.51Q220.73-25.78 220.62-26.88 220.51-27.98 219.96-28.67 219.41-29.37 218.09-29.37L218.09-29.37Q216.77-29.37 215.72-28.3 214.67-27.22 214.67-24.32L214.67-24.32 214.67-22.97 209.96-22.97Q209.52-24.88 209.52-26.29L209.52-26.29Q209.52-30.05 211.99-32.02 214.45-33.98 218.29-33.98L218.29-33.98Q221.63-33.98 223.51-33.04 225.39-32.1 226.15-30.21 226.9-28.32 226.9-25.42L226.9-25.42 226.9 0 222.14 0 221.7-2.88Q220.73-1.46 219.12-0.54 217.5 0.39 215.38 0.39L215.38 0.39Q213.18 0.39 211.77-0.73 210.35-1.86 209.66-3.7 208.96-5.54 208.96-7.71L208.96-7.71Q208.96-11.87 210.94-14.32 212.91-16.77 216.75-18.68ZM218.11-4.32L218.11-4.32Q218.9-4.32 219.56-4.72 220.21-5.13 220.73-5.71L220.73-5.71 220.73-16.31Q220.26-16.11 219.73-15.84 219.19-15.58 218.48-15.14L218.48-15.14Q217.19-14.33 216.06-12.73 214.94-11.13 214.94-8.67L214.94-8.67Q214.94-6.74 215.7-5.53 216.45-4.32 218.11-4.32ZM233.13 0L233.13-33.62 237.84-33.62 238.45-30.03 238.45-30Q239.89-32.32 241.72-33.17 243.55-34.01 245.41-34.01L245.41-34.01Q248.34-34.01 249.95-31.93 251.56-29.86 251.56-25.76L251.56-25.76 251.56 0 245.38 0 245.38-25.02Q245.38-27.25 244.7-28.11 244.02-28.98 242.7-28.98L242.7-28.98Q241.77-28.98 240.89-28.37 240.01-27.76 239.3-26.68L239.3-26.68 239.3 0 233.13 0ZM263.74-18.68L263.74-18.68Q264.67-19.14 265.74-19.63 266.82-20.12 267.72-20.43L267.72-20.43 267.72-24.51Q267.72-25.78 267.61-26.88 267.5-27.98 266.95-28.67 266.4-29.37 265.08-29.37L265.08-29.37Q263.76-29.37 262.71-28.3 261.66-27.22 261.66-24.32L261.66-24.32 261.66-22.97 256.95-22.97Q256.51-24.88 256.51-26.29L256.51-26.29Q256.51-30.05 258.98-32.02 261.44-33.98 265.28-33.98L265.28-33.98Q268.62-33.98 270.5-33.04 272.38-32.1 273.14-30.21 273.9-28.32 273.9-25.42L273.9-25.42 273.9 0 269.14 0 268.7-2.88Q267.72-1.46 266.11-0.54 264.5 0.39 262.37 0.39L262.37 0.39Q260.18 0.39 258.76-0.73 257.34-1.86 256.65-3.7 255.95-5.54 255.95-7.71L255.95-7.71Q255.95-11.87 257.93-14.32 259.91-16.77 263.74-18.68ZM265.11-4.32L265.11-4.32Q265.89-4.32 266.55-4.72 267.21-5.13 267.72-5.71L267.72-5.71 267.72-16.31Q267.26-16.11 266.72-15.84 266.18-15.58 265.47-15.14L265.47-15.14Q264.18-14.33 263.06-12.73 261.93-11.13 261.93-8.67L261.93-8.67Q261.93-6.74 262.69-5.53 263.45-4.32 265.11-4.32Z" opacity="1" transform="matrix(1,0,0,1,0,0)" fill="black" class="slogan-text-1" id="SvgjsPath2816"></path></svg></g></svg></g></svg></g></svg></g><g transform="matrix(1,0,0,1,0,0.41769468884054106)"><svg viewBox="0 0 166.30820233200672 167.0778755362175" height="167.0778755362175" width="166.30820233200672"><g><svg xmlns="http://www.w3.org/2000/svg" xmlns:xlink="http://www.w3.org/1999/xlink" version="1.1" x="0" y="0" viewBox="34.57852498980713 33.28191777352226 37.90665051143946 38.082082226477745" enable-background="new 0 0 100 100" xml:space="preserve" height="167.0778755362175" width="166.30820233200672" class="icon-icon-0" data-fill-palette-color="accent" id="SvgjsSvg2815"><g fill="black"><path d="M44.614 46.07A15 15 0 0 1 45.886 44.616L45.179 43.909 44.472 43.202C40.204 47.47 38.562 53.745 40.186 59.579L42.113 59.043A14.82 14.82 0 0 1 44.614 46.07" fill="black"></path><path d="M72.172 40.629L72.434 40.367 71.727 39.66A21.63 21.63 0 0 0 56.33 33.282C51.56 33.282 47.038 34.827 43.292 37.643A4.18 4.18 0 0 0 39.107 33.748 4.2 4.2 0 0 0 36.125 34.983 4.2 4.2 0 0 0 34.889 37.965 4.187 4.187 0 0 0 38.819 42.155C32.539 50.671 33.227 62.749 40.932 70.454L41.639 71.161 41.766 71.034C42.214 71.245 42.731 71.364 43.331 71.364 47.147 71.364 54.291 66.783 61.108 59.967 65.077 55.998 68.383 51.824 70.418 48.213 72.333 44.814 72.917 42.23 72.172 40.629M37.538 39.535A2.2 2.2 0 0 1 36.888 37.967C36.888 37.375 37.119 36.818 37.538 36.399 37.957 35.981 38.514 35.75 39.106 35.75S40.255 35.981 40.674 36.399A2.22 2.22 0 0 1 40.674 39.536C39.836 40.373 38.375 40.373 37.538 39.535M40.336 66.682C34.713 58.953 35.378 48.042 42.345 41.075A19.65 19.65 0 0 1 56.329 35.283C60.608 35.283 64.677 36.638 68.054 39.137 64.053 39.94 57.661 44.252 51.526 50.387 47.557 54.356 44.251 58.53 42.216 62.141 41.238 63.877 40.624 65.39 40.336 66.682M68.674 47.233C66.727 50.69 63.537 54.71 59.693 58.554 52.595 65.652 46.089 69.366 43.33 69.366 42.892 69.366 42.579 69.275 42.399 69.095 41.824 68.52 42.084 66.45 43.959 63.121 45.906 59.664 49.096 55.644 52.94 51.8 60.038 44.702 66.544 40.988 69.303 40.988 69.741 40.988 70.054 41.079 70.234 41.259 70.809 41.834 70.55 43.904 68.674 47.233" fill="black"></path></g></svg></g></svg></g></svg></g><defs><mask></mask></defs></svg><rect width="395.52" height="107.04978249731217" fill="black" stroke="none" visibility="hidden"></rect></g></mask></svg><rect width="395.52" height="107.04978249731217" fill="black" stroke="none" visibility="hidden"></rect></g></mask><linearGradient x1="0" x2="1" y1="0.5" y2="0.5" id="014c611f-e187-41e9-8e3f-fb8fe12d5c67"><stop stop-color="#fff72e" offset="0"></stop><stop stop-color="#deae29" offset="1"></stop></linearGradient><rect width="395.52" height="107.04978249731217" fill="url(#014c611f-e187-41e9-8e3f-fb8fe12d5c67)" mask="url(#5dbaa317-a27f-492d-8090-5e398460f55b)" data-fill-palette-color="secondary"></rect><mask id="39591c5d-5faf-4a74-b5a5-ad675d78266d"><g id="SvgjsG2849"><svg viewBox="0 0 395.52 107.04978249731217" height="107.04978249731217" width="395.52"><g><svg viewBox="0 0 620.3941100059002 167.9132649138986" height="107.04978249731217" width="395.52"><g></g><g transform="matrix(1,0,0,1,224.87411000590018,0.41769468884054106)"><svg viewBox="0 0 395.52 167.0778755362175" height="167.0778755362175" width="395.52"><g id="SvgjsG2848"><svg viewBox="0 0 395.52 167.0778755362175" height="167.0778755362175" width="395.52" id="SvgjsSvg2847"><g><svg viewBox="0 0 395.52 104.14808368200836" height="104.14808368200836" width="395.52"><g transform="matrix(1,0,0,1,0,0)"><svg width="395.52" viewBox="2.65 -35.7 179.23999999999998 47.2" height="104.14808368200836" data-palette-color="url(#508da093-c419-403f-a9ad-2309822a46d3)"></svg></g></svg></g><g transform="matrix(1,0,0,1,0,128.73494668532217)"><svg viewBox="0 0 232.209792 38.34292885089535" height="38.34292885089535" width="232.209792"><g transform="matrix(1,0,0,1,0,0)"><svg width="232.209792" viewBox="2.61 -44.41 271.28999999999996 44.8" height="38.34292885089535" data-palette-color="url(#014c611f-e187-41e9-8e3f-fb8fe12d5c67)"></svg></g></svg></g></svg></g></svg></g><g transform="matrix(1,0,0,1,0,0.41769468884054106)"><svg viewBox="0 0 166.30820233200672 167.0778755362175" height="167.0778755362175" width="166.30820233200672"><g><svg xmlns="http://www.w3.org/2000/svg" xmlns:xlink="http://www.w3.org/1999/xlink" version="1.1" x="0" y="0" viewBox="34.57852498980713 33.28191777352226 37.90665051143946 38.082082226477745" enable-background="new 0 0 100 100" xml:space="preserve" height="167.0778755362175" width="166.30820233200672" class="icon-icon-0" data-fill-palette-color="accent" id="SvgjsSvg2846"><g fill="white"><path d="M44.614 46.07A15 15 0 0 1 45.886 44.616L45.179 43.909 44.472 43.202C40.204 47.47 38.562 53.745 40.186 59.579L42.113 59.043A14.82 14.82 0 0 1 44.614 46.07" fill="white"></path><path d="M72.172 40.629L72.434 40.367 71.727 39.66A21.63 21.63 0 0 0 56.33 33.282C51.56 33.282 47.038 34.827 43.292 37.643A4.18 4.18 0 0 0 39.107 33.748 4.2 4.2 0 0 0 36.125 34.983 4.2 4.2 0 0 0 34.889 37.965 4.187 4.187 0 0 0 38.819 42.155C32.539 50.671 33.227 62.749 40.932 70.454L41.639 71.161 41.766 71.034C42.214 71.245 42.731 71.364 43.331 71.364 47.147 71.364 54.291 66.783 61.108 59.967 65.077 55.998 68.383 51.824 70.418 48.213 72.333 44.814 72.917 42.23 72.172 40.629M37.538 39.535A2.2 2.2 0 0 1 36.888 37.967C36.888 37.375 37.119 36.818 37.538 36.399 37.957 35.981 38.514 35.75 39.106 35.75S40.255 35.981 40.674 36.399A2.22 2.22 0 0 1 40.674 39.536C39.836 40.373 38.375 40.373 37.538 39.535M40.336 66.682C34.713 58.953 35.378 48.042 42.345 41.075A19.65 19.65 0 0 1 56.329 35.283C60.608 35.283 64.677 36.638 68.054 39.137 64.053 39.94 57.661 44.252 51.526 50.387 47.557 54.356 44.251 58.53 42.216 62.141 41.238 63.877 40.624 65.39 40.336 66.682M68.674 47.233C66.727 50.69 63.537 54.71 59.693 58.554 52.595 65.652 46.089 69.366 43.33 69.366 42.892 69.366 42.579 69.275 42.399 69.095 41.824 68.52 42.084 66.45 43.959 63.121 45.906 59.664 49.096 55.644 52.94 51.8 60.038 44.702 66.544 40.988 69.303 40.988 69.741 40.988 70.054 41.079 70.234 41.259 70.809 41.834 70.55 43.904 68.674 47.233" fill="white"></path></g></svg></g></svg></g></svg></g><defs><mask></mask></defs><mask><g id="SvgjsG2845"><svg viewBox="0 0 395.52 107.04978249731217" height="107.04978249731217" width="395.52"><g><svg viewBox="0 0 620.3941100059002 167.9132649138986" height="107.04978249731217" width="395.52"><g><rect width="9.392181667265874" height="167.9132649138986" x="190.8950653353205" y="0" fill="black" opacity="1" stroke-width="0" stroke="transparent" fill-opacity="1" class="rect-yte-0" rx="1%" id="SvgjsRect2844" data-palette-color="url(#508da093-c419-403f-a9ad-2309822a46d3)"></rect></g><g transform="matrix(1,0,0,1,224.87411000590018,0.41769468884054106)"><svg viewBox="0 0 395.52 167.0778755362175" height="167.0778755362175" width="395.52"><g id="SvgjsG2843"><svg viewBox="0 0 395.52 167.0778755362175" height="167.0778755362175" width="395.52" id="SvgjsSvg2842"><g><svg viewBox="0 0 395.52 104.14808368200836" height="104.14808368200836" width="395.52"><g transform="matrix(1,0,0,1,0,0)"><svg width="395.52" viewBox="2.65 -35.7 179.23999999999998 47.2" height="104.14808368200836" data-palette-color="url(#508da093-c419-403f-a9ad-2309822a46d3)"><path d="M6.5-3.1L6.5-3.1 6.5-35 9.9-35 9.9-3.4Q9.9 2.9 8.15 6.4 6.4 9.9 2.8 11.5L2.8 11.5 2.65 11.25Q4.65 9.85 5.58 6.53 6.5 3.2 6.5-3.1ZM26.3 0L22.9 0 22.9-35 26.3-35 26.3-18.8 47.3-18.8 47.3-35 50.7-35 50.7 0 47.3 0 47.3-17.6 26.3-17.6 26.3 0ZM62.15 0L58.5 0 71.95-35 75.05-35 88.5 0 84.85 0 78.65-16.4 67.3-16.4 62.15 0ZM72.6-32.4L72.3-32.4 67.65-17.6 78.2-17.6 72.6-32.4ZM99.24 0L95.84 0 97.09-35.7 97.69-35.7 122.84-5.3 123.14-5.3 122.04-35 125.44-35 124.19 0.7 123.59 0.7 98.44-29.7 98.14-29.7 99.24 0ZM137.69-3.1L137.69-3.1 137.69-35 141.09-35 141.09-3.4Q141.09 2.9 139.34 6.4 137.59 9.9 133.99 11.5L133.99 11.5 133.84 11.25Q135.84 9.85 136.76 6.53 137.69 3.2 137.69-3.1ZM157.49 0L154.09 0 154.09-35 157.49-35 157.49-18.8 178.49-18.8 178.49-35 181.89-35 181.89 0 178.49 0 178.49-17.6 157.49-17.6 157.49 0Z" opacity="1" transform="matrix(1,0,0,1,0,0)" fill="black" class="wordmark-text-0" id="SvgjsPath2841"></path></svg></g></svg></g><g transform="matrix(1,0,0,1,0,128.73494668532217)"><svg viewBox="0 0 232.209792 38.34292885089535" height="38.34292885089535" width="232.209792"><g transform="matrix(1,0,0,1,0,0)"><svg width="232.209792" viewBox="2.61 -44.41 271.28999999999996 44.8" height="38.34292885089535" data-palette-color="url(#014c611f-e187-41e9-8e3f-fb8fe12d5c67)"><path d="M11.94 0.39L11.94 0.39Q11.06 0.39 9.85 0.12 8.64-0.15 7.39-0.93 6.13-1.71 5.04-3.25 3.96-4.79 3.28-7.3 2.61-9.81 2.61-13.57L2.61-13.57 2.61-28.34Q2.61-32.1 3.32-34.61 4.03-37.11 5.19-38.61 6.35-40.11 7.76-40.86 9.18-41.6 10.6-41.83 12.01-42.07 13.21-42.07L13.21-42.07Q16.6-42.07 18.59-40.87 20.58-39.67 21.45-37.66 22.31-35.64 22.31-33.23L22.31-33.23Q22.31-31.88 22.12-30.75 21.92-29.61 21.66-28.25L21.66-28.25 16.77-28.25 16.77-30.25Q16.77-37.11 13.04-37.11L13.04-37.11Q11.04-37.11 10.13-35.61 9.23-34.11 9.23-30.1L9.23-30.1 9.23-11.3Q9.23-7.42 10.16-5.99 11.08-4.57 13.09-4.57L13.09-4.57Q15.19-4.57 16.14-6.6 17.09-8.64 17.09-11.65L17.09-11.65 17.09-16.97 13.84-16.97 13.84-21.12 23.14-21.12 23.14 0 19.04 0 18.36-3.98Q17.48-2.25 15.77-0.93 14.06 0.39 11.94 0.39ZM28.24 0L28.24-44.41 34.42-44.41 34.42-36.5 34.1-30.74Q35.47-32.62 37.16-33.31 38.84-34.01 40.55-34.01L40.55-34.01Q43.48-34.01 45.09-31.93 46.7-29.86 46.7-25.76L46.7-25.76 46.7 0 40.52 0 40.52-25.02Q40.52-27.25 39.84-28.11 39.16-28.98 37.84-28.98L37.84-28.98Q36.91-28.98 36.02-28.34 35.13-27.71 34.42-26.64L34.42-26.64 34.42 0 28.24 0ZM58.91-18.68L58.91-18.68Q59.83-19.14 60.91-19.63 61.98-20.12 62.89-20.43L62.89-20.43 62.89-24.51Q62.89-25.78 62.78-26.88 62.67-27.98 62.12-28.67 61.57-29.37 60.25-29.37L60.25-29.37Q58.93-29.37 57.88-28.3 56.83-27.22 56.83-24.32L56.83-24.32 56.83-22.97 52.12-22.97Q51.68-24.88 51.68-26.29L51.68-26.29Q51.68-30.05 54.15-32.02 56.61-33.98 60.44-33.98L60.44-33.98Q63.79-33.98 65.67-33.04 67.55-32.1 68.31-30.21 69.06-28.32 69.06-25.42L69.06-25.42 69.06 0 64.3 0 63.86-2.88Q62.89-1.46 61.27-0.54 59.66 0.39 57.54 0.39L57.54 0.39Q55.34 0.39 53.93-0.73 52.51-1.86 51.81-3.7 51.12-5.54 51.12-7.71L51.12-7.71Q51.12-11.87 53.1-14.32 55.07-16.77 58.91-18.68ZM60.27-4.32L60.27-4.32Q61.05-4.32 61.71-4.72 62.37-5.13 62.89-5.71L62.89-5.71 62.89-16.31Q62.42-16.11 61.88-15.84 61.35-15.58 60.64-15.14L60.64-15.14Q59.35-14.33 58.22-12.73 57.1-11.13 57.1-8.67L57.1-8.67Q57.1-6.74 57.86-5.53 58.61-4.32 60.27-4.32ZM75.29 0L75.29-33.62 79.8-33.62 80.34-30.2Q81.34-32.1 82.68-33.06 84.03-34.01 85.42-34.01L85.42-34.01Q90.62-34.01 90.62-27.47L90.62-27.47Q90.62-26.64 90.37-25.28 90.13-23.93 89.79-22.9L89.79-22.9 85.49-22.9 85.49-25.51Q85.49-27.54 84.88-28.26 84.27-28.98 83.37-28.98L83.37-28.98Q82.22-28.98 81.46-27.17L81.46-27.17 81.46 0 75.29 0ZM105.16 0L105.16-44.41 111.34-44.41 111.34-18.85 111.54-18.85 118.27-33.62 124.21-33.62 117-18.53 124.91 0 118.66 0 111.54-16.67 111.34-16.67 111.34 0 105.16 0ZM134.26-18.68L134.26-18.68Q135.19-19.14 136.26-19.63 137.34-20.12 138.24-20.43L138.24-20.43 138.24-24.51Q138.24-25.78 138.13-26.88 138.02-27.98 137.47-28.67 136.92-29.37 135.61-29.37L135.61-29.37Q134.29-29.37 133.24-28.3 132.19-27.22 132.19-24.32L132.19-24.32 132.19-22.97 127.48-22.97Q127.04-24.88 127.04-26.29L127.04-26.29Q127.04-30.05 129.5-32.02 131.97-33.98 135.8-33.98L135.8-33.98Q139.15-33.98 141.03-33.04 142.9-32.1 143.66-30.21 144.42-28.32 144.42-25.42L144.42-25.42 144.42 0 139.66 0 139.22-2.88Q138.24-1.46 136.63-0.54 135.02 0.39 132.9 0.39L132.9 0.39Q130.7 0.39 129.28-0.73 127.87-1.86 127.17-3.7 126.47-5.54 126.47-7.71L126.47-7.71Q126.47-11.87 128.45-14.32 130.43-16.77 134.26-18.68ZM135.63-4.32L135.63-4.32Q136.41-4.32 137.07-4.72 137.73-5.13 138.24-5.71L138.24-5.71 138.24-16.31Q137.78-16.11 137.24-15.84 136.7-15.58 136-15.14L136-15.14Q134.7-14.33 133.58-12.73 132.46-11.13 132.46-8.67L132.46-8.67Q132.46-6.74 133.21-5.53 133.97-4.32 135.63-4.32ZM161.72 0L161.72-41.7 168.05-41.7 168.05-23.49 168.24-23.49 175.47-41.7 181.77-41.7 173.73-22.14 182.67 0 175.91 0 168.24-19.85 168.05-19.85 168.05 0 161.72 0ZM186.09 0L186.09-44.41 192.26-44.41 192.26-36.5 191.95-30.74Q193.31-32.62 195-33.31 196.68-34.01 198.39-34.01L198.39-34.01Q201.32-34.01 202.93-31.93 204.54-29.86 204.54-25.76L204.54-25.76 204.54 0 198.37 0 198.37-25.02Q198.37-27.25 197.68-28.11 197-28.98 195.68-28.98L195.68-28.98Q194.75-28.98 193.86-28.34 192.97-27.71 192.26-26.64L192.26-26.64 192.26 0 186.09 0ZM216.75-18.68L216.75-18.68Q217.68-19.14 218.75-19.63 219.82-20.12 220.73-20.43L220.73-20.43 220.73-24.51Q220.73-25.78 220.62-26.88 220.51-27.98 219.96-28.67 219.41-29.37 218.09-29.37L218.09-29.37Q216.77-29.37 215.72-28.3 214.67-27.22 214.67-24.32L214.67-24.32 214.67-22.97 209.96-22.97Q209.52-24.88 209.52-26.29L209.52-26.29Q209.52-30.05 211.99-32.02 214.45-33.98 218.29-33.98L218.29-33.98Q221.63-33.98 223.51-33.04 225.39-32.1 226.15-30.21 226.9-28.32 226.9-25.42L226.9-25.42 226.9 0 222.14 0 221.7-2.88Q220.73-1.46 219.12-0.54 217.5 0.39 215.38 0.39L215.38 0.39Q213.18 0.39 211.77-0.73 210.35-1.86 209.66-3.7 208.96-5.54 208.96-7.71L208.96-7.71Q208.96-11.87 210.94-14.32 212.91-16.77 216.75-18.68ZM218.11-4.32L218.11-4.32Q218.9-4.32 219.56-4.72 220.21-5.13 220.73-5.71L220.73-5.71 220.73-16.31Q220.26-16.11 219.73-15.84 219.19-15.58 218.48-15.14L218.48-15.14Q217.19-14.33 216.06-12.73 214.94-11.13 214.94-8.67L214.94-8.67Q214.94-6.74 215.7-5.53 216.45-4.32 218.11-4.32ZM233.13 0L233.13-33.62 237.84-33.62 238.45-30.03 238.45-30Q239.89-32.32 241.72-33.17 243.55-34.01 245.41-34.01L245.41-34.01Q248.34-34.01 249.95-31.93 251.56-29.86 251.56-25.76L251.56-25.76 251.56 0 245.38 0 245.38-25.02Q245.38-27.25 244.7-28.11 244.02-28.98 242.7-28.98L242.7-28.98Q241.77-28.98 240.89-28.37 240.01-27.76 239.3-26.68L239.3-26.68 239.3 0 233.13 0ZM263.74-18.68L263.74-18.68Q264.67-19.14 265.74-19.63 266.82-20.12 267.72-20.43L267.72-20.43 267.72-24.51Q267.72-25.78 267.61-26.88 267.5-27.98 266.95-28.67 266.4-29.37 265.08-29.37L265.08-29.37Q263.76-29.37 262.71-28.3 261.66-27.22 261.66-24.32L261.66-24.32 261.66-22.97 256.95-22.97Q256.51-24.88 256.51-26.29L256.51-26.29Q256.51-30.05 258.98-32.02 261.44-33.98 265.28-33.98L265.28-33.98Q268.62-33.98 270.5-33.04 272.38-32.1 273.14-30.21 273.9-28.32 273.9-25.42L273.9-25.42 273.9 0 269.14 0 268.7-2.88Q267.72-1.46 266.11-0.54 264.5 0.39 262.37 0.39L262.37 0.39Q260.18 0.39 258.76-0.73 257.34-1.86 256.65-3.7 255.95-5.54 255.95-7.71L255.95-7.71Q255.95-11.87 257.93-14.32 259.91-16.77 263.74-18.68ZM265.11-4.32L265.11-4.32Q265.89-4.32 266.55-4.72 267.21-5.13 267.72-5.71L267.72-5.71 267.72-16.31Q267.26-16.11 266.72-15.84 266.18-15.58 265.47-15.14L265.47-15.14Q264.18-14.33 263.06-12.73 261.93-11.13 261.93-8.67L261.93-8.67Q261.93-6.74 262.69-5.53 263.45-4.32 265.11-4.32Z" opacity="1" transform="matrix(1,0,0,1,0,0)" fill="black" class="slogan-text-1" id="SvgjsPath2840"></path></svg></g></svg></g></svg></g></svg></g><g transform="matrix(1,0,0,1,0,0.41769468884054106)"><svg viewBox="0 0 166.30820233200672 167.0778755362175" height="167.0778755362175" width="166.30820233200672"><g><svg xmlns="http://www.w3.org/2000/svg" xmlns:xlink="http://www.w3.org/1999/xlink" version="1.1" x="0" y="0" viewBox="34.57852498980713 33.28191777352226 37.90665051143946 38.082082226477745" enable-background="new 0 0 100 100" xml:space="preserve" height="167.0778755362175" width="166.30820233200672" class="icon-icon-0" data-fill-palette-color="accent" id="SvgjsSvg2839"><g fill="black"><path d="M44.614 46.07A15 15 0 0 1 45.886 44.616L45.179 43.909 44.472 43.202C40.204 47.47 38.562 53.745 40.186 59.579L42.113 59.043A14.82 14.82 0 0 1 44.614 46.07" fill="black"></path><path d="M72.172 40.629L72.434 40.367 71.727 39.66A21.63 21.63 0 0 0 56.33 33.282C51.56 33.282 47.038 34.827 43.292 37.643A4.18 4.18 0 0 0 39.107 33.748 4.2 4.2 0 0 0 36.125 34.983 4.2 4.2 0 0 0 34.889 37.965 4.187 4.187 0 0 0 38.819 42.155C32.539 50.671 33.227 62.749 40.932 70.454L41.639 71.161 41.766 71.034C42.214 71.245 42.731 71.364 43.331 71.364 47.147 71.364 54.291 66.783 61.108 59.967 65.077 55.998 68.383 51.824 70.418 48.213 72.333 44.814 72.917 42.23 72.172 40.629M37.538 39.535A2.2 2.2 0 0 1 36.888 37.967C36.888 37.375 37.119 36.818 37.538 36.399 37.957 35.981 38.514 35.75 39.106 35.75S40.255 35.981 40.674 36.399A2.22 2.22 0 0 1 40.674 39.536C39.836 40.373 38.375 40.373 37.538 39.535M40.336 66.682C34.713 58.953 35.378 48.042 42.345 41.075A19.65 19.65 0 0 1 56.329 35.283C60.608 35.283 64.677 36.638 68.054 39.137 64.053 39.94 57.661 44.252 51.526 50.387 47.557 54.356 44.251 58.53 42.216 62.141 41.238 63.877 40.624 65.39 40.336 66.682M68.674 47.233C66.727 50.69 63.537 54.71 59.693 58.554 52.595 65.652 46.089 69.366 43.33 69.366 42.892 69.366 42.579 69.275 42.399 69.095 41.824 68.52 42.084 66.45 43.959 63.121 45.906 59.664 49.096 55.644 52.94 51.8 60.038 44.702 66.544 40.988 69.303 40.988 69.741 40.988 70.054 41.079 70.234 41.259 70.809 41.834 70.55 43.904 68.674 47.233" fill="black"></path></g></svg></g></svg></g></svg></g><defs><mask></mask></defs></svg><rect width="395.52" height="107.04978249731217" fill="black" stroke="none" visibility="hidden"></rect></g></mask><mask><g id="SvgjsG2838"><svg viewBox="0 0 395.52 107.04978249731217" height="107.04978249731217" width="395.52"><g><svg viewBox="0 0 620.3941100059002 167.9132649138986" height="107.04978249731217" width="395.52"><g></g><g transform="matrix(1,0,0,1,224.87411000590018,0.41769468884054106)"><svg viewBox="0 0 395.52 167.0778755362175" height="167.0778755362175" width="395.52"><g id="SvgjsG2837"><svg viewBox="0 0 395.52 167.0778755362175" height="167.0778755362175" width="395.52" id="SvgjsSvg2836"><g><svg viewBox="0 0 395.52 104.14808368200836" height="104.14808368200836" width="395.52"><g transform="matrix(1,0,0,1,0,0)"><svg width="395.52" viewBox="2.65 -35.7 179.23999999999998 47.2" height="104.14808368200836" data-palette-color="url(#508da093-c419-403f-a9ad-2309822a46d3)"></svg></g></svg></g><g transform="matrix(1,0,0,1,0,128.73494668532217)"><svg viewBox="0 0 232.209792 38.34292885089535" height="38.34292885089535" width="232.209792"><g transform="matrix(1,0,0,1,0,0)"><svg width="232.209792" viewBox="2.61 -44.41 271.28999999999996 44.8" height="38.34292885089535" data-palette-color="url(#014c611f-e187-41e9-8e3f-fb8fe12d5c67)"><path d="M11.94 0.39L11.94 0.39Q11.06 0.39 9.85 0.12 8.64-0.15 7.39-0.93 6.13-1.71 5.04-3.25 3.96-4.79 3.28-7.3 2.61-9.81 2.61-13.57L2.61-13.57 2.61-28.34Q2.61-32.1 3.32-34.61 4.03-37.11 5.19-38.61 6.35-40.11 7.76-40.86 9.18-41.6 10.6-41.83 12.01-42.07 13.21-42.07L13.21-42.07Q16.6-42.07 18.59-40.87 20.58-39.67 21.45-37.66 22.31-35.64 22.31-33.23L22.31-33.23Q22.31-31.88 22.12-30.75 21.92-29.61 21.66-28.25L21.66-28.25 16.77-28.25 16.77-30.25Q16.77-37.11 13.04-37.11L13.04-37.11Q11.04-37.11 10.13-35.61 9.23-34.11 9.23-30.1L9.23-30.1 9.23-11.3Q9.23-7.42 10.16-5.99 11.08-4.57 13.09-4.57L13.09-4.57Q15.19-4.57 16.14-6.6 17.09-8.64 17.09-11.65L17.09-11.65 17.09-16.97 13.84-16.97 13.84-21.12 23.14-21.12 23.14 0 19.04 0 18.36-3.98Q17.48-2.25 15.77-0.93 14.06 0.39 11.94 0.39ZM28.24 0L28.24-44.41 34.42-44.41 34.42-36.5 34.1-30.74Q35.47-32.62 37.16-33.31 38.84-34.01 40.55-34.01L40.55-34.01Q43.48-34.01 45.09-31.93 46.7-29.86 46.7-25.76L46.7-25.76 46.7 0 40.52 0 40.52-25.02Q40.52-27.25 39.84-28.11 39.16-28.98 37.84-28.98L37.84-28.98Q36.91-28.98 36.02-28.34 35.13-27.71 34.42-26.64L34.42-26.64 34.42 0 28.24 0ZM58.91-18.68L58.91-18.68Q59.83-19.14 60.91-19.63 61.98-20.12 62.89-20.43L62.89-20.43 62.89-24.51Q62.89-25.78 62.78-26.88 62.67-27.98 62.12-28.67 61.57-29.37 60.25-29.37L60.25-29.37Q58.93-29.37 57.88-28.3 56.83-27.22 56.83-24.32L56.83-24.32 56.83-22.97 52.12-22.97Q51.68-24.88 51.68-26.29L51.68-26.29Q51.68-30.05 54.15-32.02 56.61-33.98 60.44-33.98L60.44-33.98Q63.79-33.98 65.67-33.04 67.55-32.1 68.31-30.21 69.06-28.32 69.06-25.42L69.06-25.42 69.06 0 64.3 0 63.86-2.88Q62.89-1.46 61.27-0.54 59.66 0.39 57.54 0.39L57.54 0.39Q55.34 0.39 53.93-0.73 52.51-1.86 51.81-3.7 51.12-5.54 51.12-7.71L51.12-7.71Q51.12-11.87 53.1-14.32 55.07-16.77 58.91-18.68ZM60.27-4.32L60.27-4.32Q61.05-4.32 61.71-4.72 62.37-5.13 62.89-5.71L62.89-5.71 62.89-16.31Q62.42-16.11 61.88-15.84 61.35-15.58 60.64-15.14L60.64-15.14Q59.35-14.33 58.22-12.73 57.1-11.13 57.1-8.67L57.1-8.67Q57.1-6.74 57.86-5.53 58.61-4.32 60.27-4.32ZM75.29 0L75.29-33.62 79.8-33.62 80.34-30.2Q81.34-32.1 82.68-33.06 84.03-34.01 85.42-34.01L85.42-34.01Q90.62-34.01 90.62-27.47L90.62-27.47Q90.62-26.64 90.37-25.28 90.13-23.93 89.79-22.9L89.79-22.9 85.49-22.9 85.49-25.51Q85.49-27.54 84.88-28.26 84.27-28.98 83.37-28.98L83.37-28.98Q82.22-28.98 81.46-27.17L81.46-27.17 81.46 0 75.29 0ZM105.16 0L105.16-44.41 111.34-44.41 111.34-18.85 111.54-18.85 118.27-33.62 124.21-33.62 117-18.53 124.91 0 118.66 0 111.54-16.67 111.34-16.67 111.34 0 105.16 0ZM134.26-18.68L134.26-18.68Q135.19-19.14 136.26-19.63 137.34-20.12 138.24-20.43L138.24-20.43 138.24-24.51Q138.24-25.78 138.13-26.88 138.02-27.98 137.47-28.67 136.92-29.37 135.61-29.37L135.61-29.37Q134.29-29.37 133.24-28.3 132.19-27.22 132.19-24.32L132.19-24.32 132.19-22.97 127.48-22.97Q127.04-24.88 127.04-26.29L127.04-26.29Q127.04-30.05 129.5-32.02 131.97-33.98 135.8-33.98L135.8-33.98Q139.15-33.98 141.03-33.04 142.9-32.1 143.66-30.21 144.42-28.32 144.42-25.42L144.42-25.42 144.42 0 139.66 0 139.22-2.88Q138.24-1.46 136.63-0.54 135.02 0.39 132.9 0.39L132.9 0.39Q130.7 0.39 129.28-0.73 127.87-1.86 127.17-3.7 126.47-5.54 126.47-7.71L126.47-7.71Q126.47-11.87 128.45-14.32 130.43-16.77 134.26-18.68ZM135.63-4.32L135.63-4.32Q136.41-4.32 137.07-4.72 137.73-5.13 138.24-5.71L138.24-5.71 138.24-16.31Q137.78-16.11 137.24-15.84 136.7-15.58 136-15.14L136-15.14Q134.7-14.33 133.58-12.73 132.46-11.13 132.46-8.67L132.46-8.67Q132.46-6.74 133.21-5.53 133.97-4.32 135.63-4.32ZM161.72 0L161.72-41.7 168.05-41.7 168.05-23.49 168.24-23.49 175.47-41.7 181.77-41.7 173.73-22.14 182.67 0 175.91 0 168.24-19.85 168.05-19.85 168.05 0 161.72 0ZM186.09 0L186.09-44.41 192.26-44.41 192.26-36.5 191.95-30.74Q193.31-32.62 195-33.31 196.68-34.01 198.39-34.01L198.39-34.01Q201.32-34.01 202.93-31.93 204.54-29.86 204.54-25.76L204.54-25.76 204.54 0 198.37 0 198.37-25.02Q198.37-27.25 197.68-28.11 197-28.98 195.68-28.98L195.68-28.98Q194.75-28.98 193.86-28.34 192.97-27.71 192.26-26.64L192.26-26.64 192.26 0 186.09 0ZM216.75-18.68L216.75-18.68Q217.68-19.14 218.75-19.63 219.82-20.12 220.73-20.43L220.73-20.43 220.73-24.51Q220.73-25.78 220.62-26.88 220.51-27.98 219.96-28.67 219.41-29.37 218.09-29.37L218.09-29.37Q216.77-29.37 215.72-28.3 214.67-27.22 214.67-24.32L214.67-24.32 214.67-22.97 209.96-22.97Q209.52-24.88 209.52-26.29L209.52-26.29Q209.52-30.05 211.99-32.02 214.45-33.98 218.29-33.98L218.29-33.98Q221.63-33.98 223.51-33.04 225.39-32.1 226.15-30.21 226.9-28.32 226.9-25.42L226.9-25.42 226.9 0 222.14 0 221.7-2.88Q220.73-1.46 219.12-0.54 217.5 0.39 215.38 0.39L215.38 0.39Q213.18 0.39 211.77-0.73 210.35-1.86 209.66-3.7 208.96-5.54 208.96-7.71L208.96-7.71Q208.96-11.87 210.94-14.32 212.91-16.77 216.75-18.68ZM218.11-4.32L218.11-4.32Q218.9-4.32 219.56-4.72 220.21-5.13 220.73-5.71L220.73-5.71 220.73-16.31Q220.26-16.11 219.73-15.84 219.19-15.58 218.48-15.14L218.48-15.14Q217.19-14.33 216.06-12.73 214.94-11.13 214.94-8.67L214.94-8.67Q214.94-6.74 215.7-5.53 216.45-4.32 218.11-4.32ZM233.13 0L233.13-33.62 237.84-33.62 238.45-30.03 238.45-30Q239.89-32.32 241.72-33.17 243.55-34.01 245.41-34.01L245.41-34.01Q248.34-34.01 249.95-31.93 251.56-29.86 251.56-25.76L251.56-25.76 251.56 0 245.38 0 245.38-25.02Q245.38-27.25 244.7-28.11 244.02-28.98 242.7-28.98L242.7-28.98Q241.77-28.98 240.89-28.37 240.01-27.76 239.3-26.68L239.3-26.68 239.3 0 233.13 0ZM263.74-18.68L263.74-18.68Q264.67-19.14 265.74-19.63 266.82-20.12 267.72-20.43L267.72-20.43 267.72-24.51Q267.72-25.78 267.61-26.88 267.5-27.98 266.95-28.67 266.4-29.37 265.08-29.37L265.08-29.37Q263.76-29.37 262.71-28.3 261.66-27.22 261.66-24.32L261.66-24.32 261.66-22.97 256.95-22.97Q256.51-24.88 256.51-26.29L256.51-26.29Q256.51-30.05 258.98-32.02 261.44-33.98 265.28-33.98L265.28-33.98Q268.62-33.98 270.5-33.04 272.38-32.1 273.14-30.21 273.9-28.32 273.9-25.42L273.9-25.42 273.9 0 269.14 0 268.7-2.88Q267.72-1.46 266.11-0.54 264.5 0.39 262.37 0.39L262.37 0.39Q260.18 0.39 258.76-0.73 257.34-1.86 256.65-3.7 255.95-5.54 255.95-7.71L255.95-7.71Q255.95-11.87 257.93-14.32 259.91-16.77 263.74-18.68ZM265.11-4.32L265.11-4.32Q265.89-4.32 266.55-4.72 267.21-5.13 267.72-5.71L267.72-5.71 267.72-16.31Q267.26-16.11 266.72-15.84 266.18-15.58 265.47-15.14L265.47-15.14Q264.18-14.33 263.06-12.73 261.93-11.13 261.93-8.67L261.93-8.67Q261.93-6.74 262.69-5.53 263.45-4.32 265.11-4.32Z" opacity="1" transform="matrix(1,0,0,1,0,0)" fill="black" class="slogan-text-1" id="SvgjsPath2835"></path></svg></g></svg></g></svg></g></svg></g><g transform="matrix(1,0,0,1,0,0.41769468884054106)"><svg viewBox="0 0 166.30820233200672 167.0778755362175" height="167.0778755362175" width="166.30820233200672"><g><svg xmlns="http://www.w3.org/2000/svg" xmlns:xlink="http://www.w3.org/1999/xlink" version="1.1" x="0" y="0" viewBox="34.57852498980713 33.28191777352226 37.90665051143946 38.082082226477745" enable-background="new 0 0 100 100" xml:space="preserve" height="167.0778755362175" width="166.30820233200672" class="icon-icon-0" data-fill-palette-color="accent" id="SvgjsSvg2834"><g fill="black"><path d="M44.614 46.07A15 15 0 0 1 45.886 44.616L45.179 43.909 44.472 43.202C40.204 47.47 38.562 53.745 40.186 59.579L42.113 59.043A14.82 14.82 0 0 1 44.614 46.07" fill="black"></path><path d="M72.172 40.629L72.434 40.367 71.727 39.66A21.63 21.63 0 0 0 56.33 33.282C51.56 33.282 47.038 34.827 43.292 37.643A4.18 4.18 0 0 0 39.107 33.748 4.2 4.2 0 0 0 36.125 34.983 4.2 4.2 0 0 0 34.889 37.965 4.187 4.187 0 0 0 38.819 42.155C32.539 50.671 33.227 62.749 40.932 70.454L41.639 71.161 41.766 71.034C42.214 71.245 42.731 71.364 43.331 71.364 47.147 71.364 54.291 66.783 61.108 59.967 65.077 55.998 68.383 51.824 70.418 48.213 72.333 44.814 72.917 42.23 72.172 40.629M37.538 39.535A2.2 2.2 0 0 1 36.888 37.967C36.888 37.375 37.119 36.818 37.538 36.399 37.957 35.981 38.514 35.75 39.106 35.75S40.255 35.981 40.674 36.399A2.22 2.22 0 0 1 40.674 39.536C39.836 40.373 38.375 40.373 37.538 39.535M40.336 66.682C34.713 58.953 35.378 48.042 42.345 41.075A19.65 19.65 0 0 1 56.329 35.283C60.608 35.283 64.677 36.638 68.054 39.137 64.053 39.94 57.661 44.252 51.526 50.387 47.557 54.356 44.251 58.53 42.216 62.141 41.238 63.877 40.624 65.39 40.336 66.682M68.674 47.233C66.727 50.69 63.537 54.71 59.693 58.554 52.595 65.652 46.089 69.366 43.33 69.366 42.892 69.366 42.579 69.275 42.399 69.095 41.824 68.52 42.084 66.45 43.959 63.121 45.906 59.664 49.096 55.644 52.94 51.8 60.038 44.702 66.544 40.988 69.303 40.988 69.741 40.988 70.054 41.079 70.234 41.259 70.809 41.834 70.55 43.904 68.674 47.233" fill="black"></path></g></svg></g></svg></g></svg></g><defs><mask></mask></defs><mask><g id="SvgjsG2833"><svg viewBox="0 0 395.52 107.04978249731217" height="107.04978249731217" width="395.52"><g><svg viewBox="0 0 620.3941100059002 167.9132649138986" height="107.04978249731217" width="395.52"><g><rect width="9.392181667265874" height="167.9132649138986" x="190.8950653353205" y="0" fill="black" opacity="1" stroke-width="0" stroke="transparent" fill-opacity="1" class="rect-yte-0" rx="1%" id="SvgjsRect2832" data-palette-color="url(#508da093-c419-403f-a9ad-2309822a46d3)"></rect></g><g transform="matrix(1,0,0,1,224.87411000590018,0.41769468884054106)"><svg viewBox="0 0 395.52 167.0778755362175" height="167.0778755362175" width="395.52"><g id="SvgjsG2831"><svg viewBox="0 0 395.52 167.0778755362175" height="167.0778755362175" width="395.52" id="SvgjsSvg2830"><g><svg viewBox="0 0 395.52 104.14808368200836" height="104.14808368200836" width="395.52"><g transform="matrix(1,0,0,1,0,0)"><svg width="395.52" viewBox="2.65 -35.7 179.23999999999998 47.2" height="104.14808368200836" data-palette-color="url(#508da093-c419-403f-a9ad-2309822a46d3)"><path d="M6.5-3.1L6.5-3.1 6.5-35 9.9-35 9.9-3.4Q9.9 2.9 8.15 6.4 6.4 9.9 2.8 11.5L2.8 11.5 2.65 11.25Q4.65 9.85 5.58 6.53 6.5 3.2 6.5-3.1ZM26.3 0L22.9 0 22.9-35 26.3-35 26.3-18.8 47.3-18.8 47.3-35 50.7-35 50.7 0 47.3 0 47.3-17.6 26.3-17.6 26.3 0ZM62.15 0L58.5 0 71.95-35 75.05-35 88.5 0 84.85 0 78.65-16.4 67.3-16.4 62.15 0ZM72.6-32.4L72.3-32.4 67.65-17.6 78.2-17.6 72.6-32.4ZM99.24 0L95.84 0 97.09-35.7 97.69-35.7 122.84-5.3 123.14-5.3 122.04-35 125.44-35 124.19 0.7 123.59 0.7 98.44-29.7 98.14-29.7 99.24 0ZM137.69-3.1L137.69-3.1 137.69-35 141.09-35 141.09-3.4Q141.09 2.9 139.34 6.4 137.59 9.9 133.99 11.5L133.99 11.5 133.84 11.25Q135.84 9.85 136.76 6.53 137.69 3.2 137.69-3.1ZM157.49 0L154.09 0 154.09-35 157.49-35 157.49-18.8 178.49-18.8 178.49-35 181.89-35 181.89 0 178.49 0 178.49-17.6 157.49-17.6 157.49 0Z" opacity="1" transform="matrix(1,0,0,1,0,0)" fill="black" class="wordmark-text-0" id="SvgjsPath2829"></path></svg></g></svg></g><g transform="matrix(1,0,0,1,0,128.73494668532217)"><svg viewBox="0 0 232.209792 38.34292885089535" height="38.34292885089535" width="232.209792"><g transform="matrix(1,0,0,1,0,0)"><svg width="232.209792" viewBox="2.61 -44.41 271.28999999999996 44.8" height="38.34292885089535" data-palette-color="url(#014c611f-e187-41e9-8e3f-fb8fe12d5c67)"><path d="M11.94 0.39L11.94 0.39Q11.06 0.39 9.85 0.12 8.64-0.15 7.39-0.93 6.13-1.71 5.04-3.25 3.96-4.79 3.28-7.3 2.61-9.81 2.61-13.57L2.61-13.57 2.61-28.34Q2.61-32.1 3.32-34.61 4.03-37.11 5.19-38.61 6.35-40.11 7.76-40.86 9.18-41.6 10.6-41.83 12.01-42.07 13.21-42.07L13.21-42.07Q16.6-42.07 18.59-40.87 20.58-39.67 21.45-37.66 22.31-35.64 22.31-33.23L22.31-33.23Q22.31-31.88 22.12-30.75 21.92-29.61 21.66-28.25L21.66-28.25 16.77-28.25 16.77-30.25Q16.77-37.11 13.04-37.11L13.04-37.11Q11.04-37.11 10.13-35.61 9.23-34.11 9.23-30.1L9.23-30.1 9.23-11.3Q9.23-7.42 10.16-5.99 11.08-4.57 13.09-4.57L13.09-4.57Q15.19-4.57 16.14-6.6 17.09-8.64 17.09-11.65L17.09-11.65 17.09-16.97 13.84-16.97 13.84-21.12 23.14-21.12 23.14 0 19.04 0 18.36-3.98Q17.48-2.25 15.77-0.93 14.06 0.39 11.94 0.39ZM28.24 0L28.24-44.41 34.42-44.41 34.42-36.5 34.1-30.74Q35.47-32.62 37.16-33.31 38.84-34.01 40.55-34.01L40.55-34.01Q43.48-34.01 45.09-31.93 46.7-29.86 46.7-25.76L46.7-25.76 46.7 0 40.52 0 40.52-25.02Q40.52-27.25 39.84-28.11 39.16-28.98 37.84-28.98L37.84-28.98Q36.91-28.98 36.02-28.34 35.13-27.71 34.42-26.64L34.42-26.64 34.42 0 28.24 0ZM58.91-18.68L58.91-18.68Q59.83-19.14 60.91-19.63 61.98-20.12 62.89-20.43L62.89-20.43 62.89-24.51Q62.89-25.78 62.78-26.88 62.67-27.98 62.12-28.67 61.57-29.37 60.25-29.37L60.25-29.37Q58.93-29.37 57.88-28.3 56.83-27.22 56.83-24.32L56.83-24.32 56.83-22.97 52.12-22.97Q51.68-24.88 51.68-26.29L51.68-26.29Q51.68-30.05 54.15-32.02 56.61-33.98 60.44-33.98L60.44-33.98Q63.79-33.98 65.67-33.04 67.55-32.1 68.31-30.21 69.06-28.32 69.06-25.42L69.06-25.42 69.06 0 64.3 0 63.86-2.88Q62.89-1.46 61.27-0.54 59.66 0.39 57.54 0.39L57.54 0.39Q55.34 0.39 53.93-0.73 52.51-1.86 51.81-3.7 51.12-5.54 51.12-7.71L51.12-7.71Q51.12-11.87 53.1-14.32 55.07-16.77 58.91-18.68ZM60.27-4.32L60.27-4.32Q61.05-4.32 61.71-4.72 62.37-5.13 62.89-5.71L62.89-5.71 62.89-16.31Q62.42-16.11 61.88-15.84 61.35-15.58 60.64-15.14L60.64-15.14Q59.35-14.33 58.22-12.73 57.1-11.13 57.1-8.67L57.1-8.67Q57.1-6.74 57.86-5.53 58.61-4.32 60.27-4.32ZM75.29 0L75.29-33.62 79.8-33.62 80.34-30.2Q81.34-32.1 82.68-33.06 84.03-34.01 85.42-34.01L85.42-34.01Q90.62-34.01 90.62-27.47L90.62-27.47Q90.62-26.64 90.37-25.28 90.13-23.93 89.79-22.9L89.79-22.9 85.49-22.9 85.49-25.51Q85.49-27.54 84.88-28.26 84.27-28.98 83.37-28.98L83.37-28.98Q82.22-28.98 81.46-27.17L81.46-27.17 81.46 0 75.29 0ZM105.16 0L105.16-44.41 111.34-44.41 111.34-18.85 111.54-18.85 118.27-33.62 124.21-33.62 117-18.53 124.91 0 118.66 0 111.54-16.67 111.34-16.67 111.34 0 105.16 0ZM134.26-18.68L134.26-18.68Q135.19-19.14 136.26-19.63 137.34-20.12 138.24-20.43L138.24-20.43 138.24-24.51Q138.24-25.78 138.13-26.88 138.02-27.98 137.47-28.67 136.92-29.37 135.61-29.37L135.61-29.37Q134.29-29.37 133.24-28.3 132.19-27.22 132.19-24.32L132.19-24.32 132.19-22.97 127.48-22.97Q127.04-24.88 127.04-26.29L127.04-26.29Q127.04-30.05 129.5-32.02 131.97-33.98 135.8-33.98L135.8-33.98Q139.15-33.98 141.03-33.04 142.9-32.1 143.66-30.21 144.42-28.32 144.42-25.42L144.42-25.42 144.42 0 139.66 0 139.22-2.88Q138.24-1.46 136.63-0.54 135.02 0.39 132.9 0.39L132.9 0.39Q130.7 0.39 129.28-0.73 127.87-1.86 127.17-3.7 126.47-5.54 126.47-7.71L126.47-7.71Q126.47-11.87 128.45-14.32 130.43-16.77 134.26-18.68ZM135.63-4.32L135.63-4.32Q136.41-4.32 137.07-4.72 137.73-5.13 138.24-5.71L138.24-5.71 138.24-16.31Q137.78-16.11 137.24-15.84 136.7-15.58 136-15.14L136-15.14Q134.7-14.33 133.58-12.73 132.46-11.13 132.46-8.67L132.46-8.67Q132.46-6.74 133.21-5.53 133.97-4.32 135.63-4.32ZM161.72 0L161.72-41.7 168.05-41.7 168.05-23.49 168.24-23.49 175.47-41.7 181.77-41.7 173.73-22.14 182.67 0 175.91 0 168.24-19.85 168.05-19.85 168.05 0 161.72 0ZM186.09 0L186.09-44.41 192.26-44.41 192.26-36.5 191.95-30.74Q193.31-32.62 195-33.31 196.68-34.01 198.39-34.01L198.39-34.01Q201.32-34.01 202.93-31.93 204.54-29.86 204.54-25.76L204.54-25.76 204.54 0 198.37 0 198.37-25.02Q198.37-27.25 197.68-28.11 197-28.98 195.68-28.98L195.68-28.98Q194.75-28.98 193.86-28.34 192.97-27.71 192.26-26.64L192.26-26.64 192.26 0 186.09 0ZM216.75-18.68L216.75-18.68Q217.68-19.14 218.75-19.63 219.82-20.12 220.73-20.43L220.73-20.43 220.73-24.51Q220.73-25.78 220.62-26.88 220.51-27.98 219.96-28.67 219.41-29.37 218.09-29.37L218.09-29.37Q216.77-29.37 215.72-28.3 214.67-27.22 214.67-24.32L214.67-24.32 214.67-22.97 209.96-22.97Q209.52-24.88 209.52-26.29L209.52-26.29Q209.52-30.05 211.99-32.02 214.45-33.98 218.29-33.98L218.29-33.98Q221.63-33.98 223.51-33.04 225.39-32.1 226.15-30.21 226.9-28.32 226.9-25.42L226.9-25.42 226.9 0 222.14 0 221.7-2.88Q220.73-1.46 219.12-0.54 217.5 0.39 215.38 0.39L215.38 0.39Q213.18 0.39 211.77-0.73 210.35-1.86 209.66-3.7 208.96-5.54 208.96-7.71L208.96-7.71Q208.96-11.87 210.94-14.32 212.91-16.77 216.75-18.68ZM218.11-4.32L218.11-4.32Q218.9-4.32 219.56-4.72 220.21-5.13 220.73-5.71L220.73-5.71 220.73-16.31Q220.26-16.11 219.73-15.84 219.19-15.58 218.48-15.14L218.48-15.14Q217.19-14.33 216.06-12.73 214.94-11.13 214.94-8.67L214.94-8.67Q214.94-6.74 215.7-5.53 216.45-4.32 218.11-4.32ZM233.13 0L233.13-33.62 237.84-33.62 238.45-30.03 238.45-30Q239.89-32.32 241.72-33.17 243.55-34.01 245.41-34.01L245.41-34.01Q248.34-34.01 249.95-31.93 251.56-29.86 251.56-25.76L251.56-25.76 251.56 0 245.38 0 245.38-25.02Q245.38-27.25 244.7-28.11 244.02-28.98 242.7-28.98L242.7-28.98Q241.77-28.98 240.89-28.37 240.01-27.76 239.3-26.68L239.3-26.68 239.3 0 233.13 0ZM263.74-18.68L263.74-18.68Q264.67-19.14 265.74-19.63 266.82-20.12 267.72-20.43L267.72-20.43 267.72-24.51Q267.72-25.78 267.61-26.88 267.5-27.98 266.95-28.67 266.4-29.37 265.08-29.37L265.08-29.37Q263.76-29.37 262.71-28.3 261.66-27.22 261.66-24.32L261.66-24.32 261.66-22.97 256.95-22.97Q256.51-24.88 256.51-26.29L256.51-26.29Q256.51-30.05 258.98-32.02 261.44-33.98 265.28-33.98L265.28-33.98Q268.62-33.98 270.5-33.04 272.38-32.1 273.14-30.21 273.9-28.32 273.9-25.42L273.9-25.42 273.9 0 269.14 0 268.7-2.88Q267.72-1.46 266.11-0.54 264.5 0.39 262.37 0.39L262.37 0.39Q260.18 0.39 258.76-0.73 257.34-1.86 256.65-3.7 255.95-5.54 255.95-7.71L255.95-7.71Q255.95-11.87 257.93-14.32 259.91-16.77 263.74-18.68ZM265.11-4.32L265.11-4.32Q265.89-4.32 266.55-4.72 267.21-5.13 267.72-5.71L267.72-5.71 267.72-16.31Q267.26-16.11 266.72-15.84 266.18-15.58 265.47-15.14L265.47-15.14Q264.18-14.33 263.06-12.73 261.93-11.13 261.93-8.67L261.93-8.67Q261.93-6.74 262.69-5.53 263.45-4.32 265.11-4.32Z" opacity="1" transform="matrix(1,0,0,1,0,0)" fill="black" class="slogan-text-1" id="SvgjsPath2828"></path></svg></g></svg></g></svg></g></svg></g><g transform="matrix(1,0,0,1,0,0.41769468884054106)"><svg viewBox="0 0 166.30820233200672 167.0778755362175" height="167.0778755362175" width="166.30820233200672"><g><svg xmlns="http://www.w3.org/2000/svg" xmlns:xlink="http://www.w3.org/1999/xlink" version="1.1" x="0" y="0" viewBox="34.57852498980713 33.28191777352226 37.90665051143946 38.082082226477745" enable-background="new 0 0 100 100" xml:space="preserve" height="167.0778755362175" width="166.30820233200672" class="icon-icon-0" data-fill-palette-color="accent" id="SvgjsSvg2827"><g fill="black"><path d="M44.614 46.07A15 15 0 0 1 45.886 44.616L45.179 43.909 44.472 43.202C40.204 47.47 38.562 53.745 40.186 59.579L42.113 59.043A14.82 14.82 0 0 1 44.614 46.07" fill="black"></path><path d="M72.172 40.629L72.434 40.367 71.727 39.66A21.63 21.63 0 0 0 56.33 33.282C51.56 33.282 47.038 34.827 43.292 37.643A4.18 4.18 0 0 0 39.107 33.748 4.2 4.2 0 0 0 36.125 34.983 4.2 4.2 0 0 0 34.889 37.965 4.187 4.187 0 0 0 38.819 42.155C32.539 50.671 33.227 62.749 40.932 70.454L41.639 71.161 41.766 71.034C42.214 71.245 42.731 71.364 43.331 71.364 47.147 71.364 54.291 66.783 61.108 59.967 65.077 55.998 68.383 51.824 70.418 48.213 72.333 44.814 72.917 42.23 72.172 40.629M37.538 39.535A2.2 2.2 0 0 1 36.888 37.967C36.888 37.375 37.119 36.818 37.538 36.399 37.957 35.981 38.514 35.75 39.106 35.75S40.255 35.981 40.674 36.399A2.22 2.22 0 0 1 40.674 39.536C39.836 40.373 38.375 40.373 37.538 39.535M40.336 66.682C34.713 58.953 35.378 48.042 42.345 41.075A19.65 19.65 0 0 1 56.329 35.283C60.608 35.283 64.677 36.638 68.054 39.137 64.053 39.94 57.661 44.252 51.526 50.387 47.557 54.356 44.251 58.53 42.216 62.141 41.238 63.877 40.624 65.39 40.336 66.682M68.674 47.233C66.727 50.69 63.537 54.71 59.693 58.554 52.595 65.652 46.089 69.366 43.33 69.366 42.892 69.366 42.579 69.275 42.399 69.095 41.824 68.52 42.084 66.45 43.959 63.121 45.906 59.664 49.096 55.644 52.94 51.8 60.038 44.702 66.544 40.988 69.303 40.988 69.741 40.988 70.054 41.079 70.234 41.259 70.809 41.834 70.55 43.904 68.674 47.233" fill="black"></path></g></svg></g></svg></g></svg></g><defs><mask></mask></defs></svg><rect width="395.52" height="107.04978249731217" fill="black" stroke="none" visibility="hidden"></rect></g></mask></svg><rect width="395.52" height="107.04978249731217" fill="black" stroke="none" visibility="hidden"></rect></g></mask></svg><rect width="395.52" height="107.04978249731217" fill="black" stroke="none" visibility="hidden"></rect></g></mask><linearGradient x1="0" x2="1" y1="0.5" y2="0.5" id="4fcfc910-9e5e-43da-b716-c2fb7aef1479"><stop stop-color="#fff72e" offset="0"></stop><stop stop-color="#deae29" offset="1"></stop></linearGradient><rect width="395.52" height="107.04978249731217" fill="url(#4fcfc910-9e5e-43da-b716-c2fb7aef1479)" mask="url(#39591c5d-5faf-4a74-b5a5-ad675d78266d)" data-fill-palette-color="accent"></rect></svg><rect width="395.52" height="107.04978249731217" fill="none" stroke="none" visibility="hidden"></rect></g></svg></g></svg>